<svg xmlns="http://www.w3.org/2000/svg" xmlns:xlink="http://www.w3.org/1999/xlink" width="1366" zoomAndPan="magnify" viewBox="0 0 1024.5 576" height="768" preserveAspectRatio="xMidYMid meet" version="1.0"><defs><clipPath id="6b87f23e2c"><path d="M 278.277344 232.253906 L 334.933594 232.253906 L 334.933594 284 L 278.277344 284 Z M 278.277344 232.253906 " clip-rule="nonzero"/></clipPath><clipPath id="dccc1deb30"><path d="M 278.941406 245.386719 C 280.679688 232.632812 282.421875 232.34375 283.578125 232.34375 C 285.027344 232.632812 286.1875 233.792969 287.347656 235.824219 C 290.246094 241.332031 294.304688 269.15625 291.984375 274.957031 C 291.117188 277.273438 288.507812 279.015625 287.925781 278.722656 C 287.347656 278.144531 289.667969 270.898438 292.566406 267.128906 C 296.332031 262.492188 305.609375 254.953125 311.117188 254.085938 C 315.175781 253.503906 318.945312 255.824219 322.421875 258.144531 C 326.769531 261.332031 333.4375 269.15625 334.308594 272.925781 C 334.886719 274.957031 334.308594 277.273438 333.148438 278.144531 C 332.277344 279.015625 329.089844 279.304688 327.929688 278.433594 C 326.769531 277.566406 326.769531 272.347656 327.929688 271.1875 C 328.511719 270.316406 330.828125 270.316406 331.988281 270.898438 C 333.148438 271.476562 335.175781 274.085938 334.597656 275.246094 C 334.308594 276.695312 330.539062 279.015625 328.511719 278.722656 C 324.742188 278.144531 320.683594 264.808594 315.753906 263.652344 C 311.40625 262.78125 303.871094 267.417969 300.390625 270.898438 C 297.203125 274.085938 297.492188 280.753906 294.882812 282.492188 C 292.566406 283.941406 288.507812 284.523438 286.1875 282.492188 C 280.679688 278.144531 276.621094 243.648438 278.941406 236.691406 C 279.519531 234.375 281.261719 232.632812 282.710938 232.34375 C 284.160156 232.34375 286.476562 233.792969 287.347656 235.824219 C 288.507812 238.429688 288.21875 246.257812 286.476562 248.289062 C 285.320312 249.445312 283 249.738281 281.550781 249.445312 C 280.390625 248.867188 278.941406 245.386719 278.941406 245.386719 " clip-rule="nonzero"/></clipPath><clipPath id="f4123ee5c3"><path d="M 358.523438 256 L 402.859375 256 L 402.859375 288.207031 L 358.523438 288.207031 Z M 358.523438 256 " clip-rule="nonzero"/></clipPath><clipPath id="e783906eca"><path d="M 384.164062 272.636719 C 370.542969 265.96875 365.902344 279.882812 367.351562 281.042969 C 369.382812 282.492188 385.613281 263.652344 389.964844 264.808594 C 392.863281 265.679688 392.28125 273.507812 394.601562 276.40625 C 396.628906 279.304688 402.429688 280.753906 402.429688 283.070312 C 402.71875 284.8125 400.109375 287.710938 398.660156 288 C 397.5 288.289062 394.890625 286.550781 394.3125 285.390625 C 393.730469 284.230469 394.019531 282.203125 394.601562 281.332031 C 395.472656 280.171875 398.371094 279.015625 399.820312 279.59375 C 400.976562 279.882812 402.71875 282.492188 402.71875 283.941406 C 402.71875 285.101562 401.847656 287.128906 400.398438 287.421875 C 398.078125 288.289062 389.964844 283.941406 387.644531 281.621094 C 386.195312 280.171875 385.613281 279.015625 385.324219 276.984375 C 384.746094 274.375 384.746094 268 386.195312 266.257812 C 386.773438 265.101562 387.933594 264.519531 388.804688 264.808594 C 390.253906 265.101562 393.441406 268.578125 393.152344 270.609375 C 393.152344 273.214844 388.222656 276.984375 384.457031 279.59375 C 379.816406 283.070312 371.410156 287.421875 367.0625 287.710938 C 364.746094 287.710938 363.003906 287.128906 361.554688 285.972656 C 360.105469 284.8125 358.945312 282.203125 358.65625 280.171875 C 358.65625 277.855469 359.527344 275.535156 360.394531 272.925781 C 361.84375 269.15625 364.164062 263.941406 366.484375 261.332031 C 368.800781 258.722656 371.121094 256.113281 374.019531 256.113281 C 378.367188 256.113281 388.804688 263.359375 390.253906 266.839844 C 391.121094 268.867188 390.253906 271.476562 389.09375 272.347656 C 387.933594 273.214844 384.164062 272.636719 384.164062 272.636719 " clip-rule="nonzero"/></clipPath><clipPath id="2417ce46c0"><path d="M 406.742188 264.199219 L 455.929688 264.199219 L 455.929688 293.914062 L 406.742188 293.914062 Z M 406.742188 264.199219 " clip-rule="nonzero"/></clipPath><clipPath id="1eb2a87619"><path d="M 416.050781 273.214844 C 422.429688 290.609375 420.109375 293.796875 418.949219 293.796875 C 417.210938 293.507812 414.023438 285.390625 414.601562 281.332031 C 415.472656 276.984375 419.820312 272.058594 424.457031 269.160156 C 430.835938 265.679688 445.617188 263.359375 450.835938 264.519531 C 453.15625 265.390625 455.476562 267.128906 455.765625 268.578125 C 456.054688 269.738281 455.183594 271.476562 454.316406 272.347656 C 453.15625 273.214844 449.96875 273.214844 448.808594 272.347656 C 447.648438 271.765625 447.066406 268.867188 447.359375 267.417969 C 447.648438 266.257812 449.097656 264.808594 450.257812 264.808594 C 451.707031 264.519531 455.183594 266.550781 455.765625 268 C 456.054688 269.449219 455.183594 271.476562 453.445312 272.925781 C 449.675781 275.535156 434.894531 272.347656 429.675781 275.824219 C 425.90625 278.722656 425.039062 288.289062 423.007812 288.578125 C 421.847656 288.871094 420.109375 285.390625 420.109375 285.390625 C 419.820312 285.390625 422.71875 288 422.71875 289.449219 C 422.71875 290.898438 420.398438 293.507812 418.949219 293.796875 C 417.210938 294.085938 414.601562 292.636719 413.152344 290.898438 C 410.835938 288.289062 408.804688 282.78125 407.933594 279.304688 C 407.066406 276.113281 406.484375 272.925781 407.066406 270.609375 C 407.644531 268.867188 408.515625 267.128906 410.253906 266.257812 C 412.285156 265.101562 418.082031 265.101562 419.53125 266.550781 C 420.398438 267.417969 420.691406 269.449219 420.109375 270.609375 C 419.53125 271.765625 416.050781 273.214844 416.050781 273.214844 " clip-rule="nonzero"/></clipPath><clipPath id="adcc8f1afe"><path d="M 480.039062 267.832031 L 549.785156 267.832031 L 549.785156 296 L 480.039062 296 Z M 480.039062 267.832031 " clip-rule="nonzero"/></clipPath><clipPath id="7d730f1fc4"><path d="M 487.941406 281.621094 C 480.402344 275.246094 482.433594 271.765625 483.882812 271.1875 C 484.753906 270.609375 485.910156 270.609375 486.78125 271.476562 C 488.808594 273.214844 492 283.363281 490.839844 286.550781 C 490.257812 288.289062 487.070312 290.027344 487.070312 289.738281 C 486.492188 289.449219 492.289062 279.304688 496.058594 275.824219 C 499.535156 272.347656 503.882812 267.707031 507.941406 268 C 512.578125 268.289062 517.796875 280.464844 521.855469 280.464844 C 525.042969 280.171875 527.652344 273.507812 530.550781 272.347656 C 532.292969 271.476562 534.03125 271.1875 535.480469 271.765625 C 538.089844 272.636719 540.699219 278.722656 543.304688 280.171875 C 545.335938 281.332031 548.8125 280.171875 549.394531 281.332031 C 550.261719 282.492188 548.234375 287.710938 546.785156 288 C 545.335938 288.289062 541.566406 284.523438 541.566406 283.070312 C 541.566406 281.621094 544.175781 279.59375 545.335938 279.304688 C 546.496094 279.015625 548.523438 279.882812 549.105469 280.753906 C 549.972656 282.203125 549.683594 286.261719 548.523438 287.128906 C 546.496094 288.289062 537.800781 285.390625 536.347656 283.363281 C 535.480469 281.914062 536.929688 279.015625 536.347656 278.722656 C 534.898438 278.144531 527.652344 288.289062 523.886719 289.449219 C 521.566406 290.320312 519.246094 290.027344 516.929688 288.871094 C 513.738281 287.128906 512 276.695312 508.523438 276.40625 C 504.171875 276.113281 496.925781 292.929688 492.289062 294.957031 C 489.679688 296.117188 486.78125 296.40625 484.753906 294.957031 C 481.851562 292.347656 479.535156 275.246094 480.402344 274.957031 C 480.695312 274.957031 483.011719 279.304688 483.011719 279.304688 C 483.011719 279.304688 480.695312 277.273438 480.695312 276.113281 C 480.402344 274.664062 481.5625 272.058594 482.722656 271.476562 C 484.753906 270.609375 491.128906 272.636719 492.578125 274.375 C 493.738281 275.824219 494.316406 279.015625 493.449219 280.171875 C 492.578125 281.332031 487.941406 281.621094 487.941406 281.621094 " clip-rule="nonzero"/></clipPath><clipPath id="f91914b202"><path d="M 578.359375 259 L 611.992188 259 L 611.992188 291.425781 L 578.359375 291.425781 Z M 578.359375 259 " clip-rule="nonzero"/></clipPath><clipPath id="3e9cb2cf2f"><path d="M 589.105469 273.507812 C 589.394531 283.070312 598.382812 283.941406 600.410156 282.203125 C 602.441406 280.753906 603.019531 274.375 601.570312 272.058594 C 600.410156 270.027344 594.613281 267.707031 594.035156 268.578125 C 593.453125 269.160156 598.671875 274.664062 598.09375 275.824219 C 597.511719 276.40625 594.035156 276.113281 593.164062 275.246094 C 592.296875 274.085938 592.875 268.578125 594.035156 268 C 595.195312 267.417969 600.121094 270.027344 600.410156 271.476562 C 600.410156 272.925781 596.351562 276.113281 594.902344 276.113281 C 593.746094 276.113281 592.296875 274.375 592.003906 273.214844 C 591.714844 271.765625 592.585938 268.867188 593.746094 268.289062 C 595.195312 267.707031 599.832031 269.449219 600.410156 270.898438 C 600.703125 272.347656 599.253906 275.246094 598.09375 275.824219 C 596.933594 276.40625 592.875 274.957031 592.875 274.957031 C 592.875 274.664062 598.09375 275.535156 598.09375 275.824219 C 598.09375 275.824219 594.035156 276.113281 593.164062 275.246094 C 592.296875 274.085938 594.613281 270.316406 594.035156 268 C 593.453125 265.679688 589.105469 262.492188 589.976562 261.042969 C 590.554688 259.882812 595.195312 259.882812 598.09375 260.75 C 601.859375 261.910156 607.949219 266.839844 610.265625 270.316406 C 611.714844 272.925781 612.007812 275.824219 611.714844 278.433594 C 611.714844 281.042969 610.847656 283.941406 609.109375 285.972656 C 607.367188 288.289062 603.308594 290.320312 600.410156 290.898438 C 597.511719 291.476562 594.613281 291.1875 591.714844 290.609375 C 588.527344 290.027344 584.46875 289.738281 582.441406 287.421875 C 579.539062 284.523438 578.089844 276.695312 578.671875 272.058594 C 579.539062 267.707031 582.730469 261.332031 586.207031 259.59375 C 589.105469 258.144531 596.0625 259.59375 598.09375 261.332031 C 599.542969 262.492188 599.832031 264.519531 599.832031 266.550781 C 599.832031 269.738281 597.511719 277.273438 595.195312 278.722656 C 594.035156 279.59375 591.425781 279.015625 590.265625 278.144531 C 589.394531 277.273438 589.105469 273.507812 589.105469 273.507812 " clip-rule="nonzero"/></clipPath><clipPath id="ce6d920810"><path d="M 622.5625 258.84375 L 683.246094 258.84375 L 683.246094 287.214844 L 622.5625 287.214844 Z M 622.5625 258.84375 " clip-rule="nonzero"/></clipPath><clipPath id="12c5c71072"><path d="M 625.339844 269.15625 C 623.601562 261.042969 628.820312 260.171875 629.980469 261.332031 C 630.847656 262.203125 629.109375 265.390625 629.6875 267.707031 C 630.269531 270.898438 635.777344 275.246094 635.488281 277.566406 C 635.195312 279.015625 632.007812 281.332031 631.71875 281.042969 C 630.847656 280.464844 634.90625 270.898438 637.804688 267.128906 C 640.992188 263.652344 645.921875 259.882812 649.691406 259.011719 C 652.300781 258.722656 654.328125 259.300781 656.9375 260.75 C 661.574219 263.652344 666.792969 276.113281 671.71875 278.433594 C 675.199219 280.171875 681.285156 276.984375 682.445312 278.433594 C 683.316406 279.59375 682.445312 283.363281 681.285156 284.230469 C 680.417969 285.101562 677.226562 285.390625 676.359375 284.523438 C 675.199219 283.363281 675.199219 278.144531 676.359375 276.984375 C 677.226562 276.113281 680.417969 276.695312 681.578125 277.566406 C 682.734375 278.144531 683.316406 280.171875 683.027344 281.332031 C 682.734375 282.78125 680.707031 285.101562 679.257812 285.101562 C 677.808594 285.101562 674.039062 281.042969 674.621094 279.59375 C 674.910156 278.433594 679.835938 276.695312 681.285156 277.273438 C 682.445312 277.566406 683.027344 279.59375 683.027344 280.753906 C 683.027344 282.203125 681.867188 283.941406 680.417969 284.8125 C 677.519531 285.972656 668.53125 285.390625 664.472656 282.78125 C 660.125 280.171875 657.808594 271.476562 654.90625 269.15625 C 653.167969 268 652.007812 266.839844 650.269531 267.417969 C 646.5 268.578125 641.285156 283.941406 636.9375 286.261719 C 634.328125 287.421875 631.429688 287.710938 629.398438 285.972656 C 625.921875 283.070312 622.730469 262.78125 622.730469 262.78125 C 622.441406 262.78125 623.601562 267.417969 623.890625 267.417969 C 623.890625 267.417969 622.441406 263.652344 622.730469 262.492188 C 623.3125 261.332031 624.761719 260.171875 625.921875 259.882812 C 627.949219 259.882812 632.007812 262.78125 632.585938 264.808594 C 633.167969 265.96875 632.296875 268.578125 631.136719 269.449219 C 629.980469 270.316406 625.339844 269.15625 625.339844 269.15625 " clip-rule="nonzero"/></clipPath><clipPath id="893c9f5730"><path d="M 683.175781 253.113281 L 745.78125 253.113281 L 745.78125 343.726562 L 683.175781 343.726562 Z M 683.175781 253.113281 " clip-rule="nonzero"/></clipPath><clipPath id="83f1a006bf"><path d="M 694.910156 268.867188 C 696.648438 260.75 699.257812 259.300781 700.996094 259.882812 C 703.605469 261.042969 705.054688 270.898438 707.953125 274.375 C 710.273438 276.695312 713.460938 279.304688 716.359375 279.304688 C 720.128906 279.015625 726.796875 273.796875 729.40625 269.738281 C 731.722656 265.679688 729.40625 256.695312 731.722656 254.664062 C 733.175781 253.503906 736.363281 253.214844 738.101562 254.953125 C 743.898438 260.171875 747.085938 307.710938 745.058594 321.914062 C 744.1875 328.582031 743.03125 332.929688 739.261719 336.410156 C 734.914062 340.46875 726.796875 343.65625 719.261719 343.65625 C 709.402344 343.65625 688.824219 336.117188 685.054688 331.480469 C 683.316406 329.453125 683.316406 326.261719 684.183594 325.105469 C 685.054688 323.945312 688.242188 323.363281 689.402344 323.945312 C 690.851562 324.8125 692.011719 328.871094 691.433594 330.03125 C 690.5625 331.191406 685.34375 331.769531 684.183594 330.902344 C 683.316406 330.03125 683.316406 326.84375 683.894531 325.394531 C 684.476562 324.523438 685.632812 323.65625 687.664062 323.65625 C 692.882812 323.363281 711.433594 334.378906 718.390625 334.960938 C 722.160156 335.25 724.1875 334.378906 726.796875 333.511719 C 729.117188 332.351562 731.722656 331.191406 733.175781 328.871094 C 735.203125 325.972656 735.78125 322.785156 736.363281 317.277344 C 737.230469 305.390625 728.246094 265.679688 730.566406 257.5625 C 731.144531 255.246094 732.015625 254.085938 733.464844 253.503906 C 734.625 253.214844 737.230469 253.503906 738.101562 254.953125 C 740.132812 257.5625 739.261719 268.867188 736.652344 274.085938 C 734.042969 279.304688 727.375 283.941406 722.738281 285.972656 C 719.550781 287.421875 716.652344 288.289062 713.460938 287.421875 C 709.113281 286.550781 703.605469 282.78125 700.417969 278.722656 C 697.519531 274.957031 694.910156 267.417969 694.910156 264.230469 C 695.199219 262.492188 695.78125 261.042969 696.941406 260.460938 C 698.097656 259.882812 700.707031 259.59375 701.867188 260.460938 C 703.605469 261.910156 703.898438 270.027344 702.738281 271.765625 C 701.867188 272.925781 698.96875 273.507812 697.808594 272.925781 C 696.648438 272.636719 694.910156 268.867188 694.910156 268.867188 " clip-rule="nonzero"/></clipPath></defs><g clip-path="url(#6b87f23e2c)"><g clip-path="url(#dccc1deb30)"><path fill="#c33c09" d="M 267.347656 220.75 L 346.4375 220.75 L 346.4375 294.378906 L 267.347656 294.378906 Z M 267.347656 220.75 " fill-opacity="1" fill-rule="nonzero"/></g></g><g clip-path="url(#f4123ee5c3)"><g clip-path="url(#e783906eca)"><path fill="#c33c09" d="M 347.0625 244.519531 L 414.324219 244.519531 L 414.324219 299.886719 L 347.0625 299.886719 Z M 347.0625 244.519531 " fill-opacity="1" fill-rule="nonzero"/></g></g><g clip-path="url(#2417ce46c0)"><g clip-path="url(#1eb2a87619)"><path fill="#c33c09" d="M 395.472656 252.925781 L 467.410156 252.925781 L 467.410156 305.390625 L 395.472656 305.390625 Z M 395.472656 252.925781 " fill-opacity="1" fill-rule="nonzero"/></g></g><g clip-path="url(#adcc8f1afe)"><g clip-path="url(#7d730f1fc4)"><path fill="#c33c09" d="M 468.808594 256.402344 L 561.214844 256.402344 L 561.214844 306.84375 L 468.808594 306.84375 Z M 468.808594 256.402344 " fill-opacity="1" fill-rule="nonzero"/></g></g><g clip-path="url(#f91914b202)"><g clip-path="url(#3e9cb2cf2f)"><path fill="#c33c09" d="M 567.074219 247.996094 L 623.703125 247.996094 L 623.703125 302.492188 L 567.074219 302.492188 Z M 567.074219 247.996094 " fill-opacity="1" fill-rule="nonzero"/></g></g><g clip-path="url(#ce6d920810)"><g clip-path="url(#12c5c71072)"><path fill="#c33c09" d="M 611.136719 247.417969 L 694.871094 247.417969 L 694.871094 297.855469 L 611.136719 297.855469 Z M 611.136719 247.417969 " fill-opacity="1" fill-rule="nonzero"/></g></g><g clip-path="url(#893c9f5730)"><g clip-path="url(#83f1a006bf)"><path fill="#c33c09" d="M 672.300781 241.910156 L 756.652344 241.910156 L 756.652344 355.261719 L 672.300781 355.261719 Z M 672.300781 241.910156 " fill-opacity="1" fill-rule="nonzero"/></g></g></svg>