<svg xmlns="http://www.w3.org/2000/svg" xmlns:xlink="http://www.w3.org/1999/xlink" width="1366" zoomAndPan="magnify" viewBox="0 0 1024.5 576" height="768" preserveAspectRatio="xMidYMid meet" version="1.0"><defs><clipPath id="320f649ec8"><path d="M 270.5625 236.433594 L 329.914062 236.433594 L 329.914062 297 L 270.5625 297 Z M 270.5625 236.433594 " clip-rule="nonzero"/></clipPath><clipPath id="1ca23b2fe5"><path d="M 280.816406 241.085938 C 286.683594 295.097656 285.136719 296.332031 283.902344 296.640625 C 282.667969 297.257812 280.816406 296.640625 279.582031 295.714844 C 278.964844 295.097656 278.039062 294.171875 278.039062 292.9375 C 278.347656 290.46875 281.433594 286.148438 284.519531 282.136719 C 289.460938 276.578125 300.570312 263.925781 306.128906 263 C 308.90625 262.382812 310.757812 263.617188 313.226562 265.160156 C 318.164062 268.863281 330.203125 281.828125 329.585938 286.148438 C 329.585938 288.617188 325.265625 291.085938 323.71875 291.085938 C 322.484375 290.777344 320.941406 289.234375 320.632812 288 C 320.324219 286.457031 321.558594 283.679688 322.484375 282.753906 C 323.71875 281.828125 325.882812 281.828125 326.808594 282.445312 C 328.351562 283.0625 330.203125 285.839844 329.585938 287.074219 C 329.277344 288.617188 325.265625 291.085938 322.792969 290.46875 C 318.164062 289.542969 312.609375 272.257812 307.054688 272.257812 C 300.261719 272.257812 291.3125 293.246094 285.757812 295.714844 C 283.59375 296.640625 281.433594 296.949219 279.582031 295.714844 C 277.113281 293.863281 275.878906 286.457031 274.644531 279.667969 C 272.792969 269.789062 269.089844 247.257812 271.558594 241.085938 C 272.792969 238.304688 275.261719 236.453125 276.804688 236.453125 C 278.347656 236.453125 280.816406 241.085938 280.816406 241.085938 " clip-rule="nonzero"/></clipPath><clipPath id="96a5bb7698"><path d="M 359.867188 265.808594 L 404.808594 265.808594 L 404.808594 307.15625 L 359.867188 307.15625 Z M 359.867188 265.808594 " clip-rule="nonzero"/></clipPath><clipPath id="dd0da37d6f"><path d="M 374.03125 279.976562 C 376.808594 281.828125 378.96875 278.742188 378.96875 277.503906 C 378.660156 276.578125 376.5 274.417969 375.265625 274.726562 C 373.414062 274.726562 369.710938 280.59375 369.09375 283.988281 C 368.167969 287.691406 368.785156 293.554688 370.636719 295.714844 C 371.871094 297.257812 374.339844 297.878906 377.117188 297.878906 C 382.363281 297.566406 394.710938 288 399.339844 288.308594 C 401.5 288.617188 403.664062 289.851562 404.28125 291.394531 C 404.898438 292.320312 404.589844 294.789062 403.664062 295.714844 C 402.425781 296.640625 397.179688 296.949219 396.253906 295.714844 C 395.328125 294.480469 396.253906 290.160156 397.488281 289.234375 C 398.722656 288.308594 402.117188 288.617188 403.042969 289.542969 C 404.28125 290.777344 404.589844 294.171875 403.042969 296.332031 C 400.265625 300.65625 384.835938 307.445312 377.425781 307.136719 C 371.5625 306.519531 364.464844 302.199219 361.683594 297.566406 C 358.90625 292.628906 359.832031 283.0625 361.992188 277.8125 C 364.152344 272.875 369.710938 267.011719 373.722656 266.085938 C 377.425781 265.160156 382.980469 267.011719 385.453125 269.171875 C 387.304688 270.714844 387.921875 273.183594 388.230469 275.652344 C 388.539062 279.050781 386.6875 285.839844 384.835938 288.308594 C 383.597656 289.851562 382.363281 290.46875 380.203125 290.777344 C 377.425781 291.394531 371.5625 290.46875 369.09375 288.308594 C 367.242188 286.765625 365.699219 282.753906 366.316406 281.519531 C 367.242188 279.976562 374.03125 279.976562 374.03125 279.976562 " clip-rule="nonzero"/></clipPath><clipPath id="cd77cb01e8"><path d="M 434.277344 260.585938 L 492.234375 260.585938 L 492.234375 300.90625 L 434.277344 300.90625 Z M 434.277344 260.585938 " clip-rule="nonzero"/></clipPath><clipPath id="e14e5656d6"><path d="M 451.195312 275.652344 C 448.109375 271.640625 445.949219 274.726562 445.023438 277.195312 C 443.480469 280.59375 441.933594 289.234375 443.789062 290.777344 C 444.714844 292.011719 447.800781 291.394531 450.269531 290.160156 C 455.207031 287.691406 461.996094 273.183594 468.789062 272.566406 C 475.886719 271.949219 489.777344 283.371094 491.9375 287.691406 C 492.554688 289.542969 491.9375 292.011719 491.011719 293.246094 C 490.085938 294.171875 487.925781 294.789062 486.691406 294.171875 C 485.148438 293.863281 482.679688 289.851562 483.296875 288.617188 C 483.914062 287.074219 489.160156 285.222656 490.394531 286.148438 C 491.628906 286.765625 492.554688 290.160156 491.9375 291.394531 C 491.628906 292.9375 489.46875 294.171875 487.308594 294.480469 C 483.914062 294.480469 475.578125 290.46875 472.800781 287.691406 C 470.949219 285.839844 471.257812 281.828125 470.023438 281.828125 C 467.863281 281.519531 465.085938 289.851562 461.378906 292.9375 C 457.058594 296.332031 449.652344 300.347656 445.332031 300.65625 C 441.933594 300.65625 438.847656 299.113281 437.304688 297.257812 C 435.453125 295.714844 434.835938 293.554688 434.527344 290.777344 C 433.910156 286.457031 434.835938 278.433594 436.378906 274.109375 C 437.304688 270.40625 438.847656 267.628906 440.699219 265.46875 C 442.550781 263.308594 445.640625 261.148438 447.800781 260.839844 C 449.960938 260.53125 452.121094 261.148438 453.972656 262.691406 C 456.132812 264.542969 459.527344 269.789062 459.835938 272.566406 C 459.835938 274.417969 458.292969 277.503906 456.75 277.8125 C 455.207031 278.433594 451.195312 275.652344 451.195312 275.652344 " clip-rule="nonzero"/></clipPath><clipPath id="7e6a0ecd1c"><path d="M 528.601562 250.894531 L 550.957031 250.894531 L 550.957031 306.605469 L 528.601562 306.605469 Z M 528.601562 250.894531 " clip-rule="nonzero"/></clipPath><clipPath id="8a17e8c2b5"><path d="M 533.296875 260.53125 C 531.136719 252.195312 535.765625 250.652344 537.925781 252.195312 C 543.175781 255.898438 545.335938 293.863281 543.792969 301.273438 C 543.175781 304.050781 542.558594 305.285156 541.324219 305.902344 C 540.085938 306.828125 536.691406 306.519531 536.074219 305.285156 C 534.839844 303.125 540.703125 290.777344 543.792969 289.234375 C 545.335938 288.308594 548.113281 288.617188 549.347656 289.542969 C 550.582031 290.46875 551.199219 293.863281 550.582031 295.097656 C 549.65625 296.332031 545.335938 297.878906 544.101562 296.949219 C 542.867188 296.332031 542.25 290.777344 543.484375 289.542969 C 544.101562 288.617188 546.570312 288 547.496094 288.617188 C 549.039062 289.234375 551.199219 291.703125 550.890625 293.246094 C 550.582031 295.097656 544.71875 296.949219 542.867188 299.421875 C 541.632812 301.273438 542.558594 305.285156 541.324219 305.902344 C 539.777344 306.828125 536.382812 305.59375 534.53125 303.433594 C 530.519531 298.1875 528.976562 274.417969 528.667969 265.777344 C 528.667969 260.839844 528.359375 257.132812 530.210938 254.664062 C 531.445312 252.503906 534.222656 250.652344 536.074219 250.960938 C 537.925781 251.269531 541.015625 254.972656 541.015625 257.132812 C 541.324219 258.679688 539.777344 260.839844 538.542969 261.457031 C 537 262.074219 533.296875 260.53125 533.296875 260.53125 " clip-rule="nonzero"/></clipPath><clipPath id="4fcb603ae4"><path d="M 594 269.820312 L 609.65625 269.820312 L 609.65625 294.585938 L 594 294.585938 Z M 594 269.820312 " clip-rule="nonzero"/></clipPath><clipPath id="ab94dc6af1"><path d="M 594.101562 278.125 C 600.585938 269.171875 603.363281 269.171875 604.90625 270.714844 C 607.683594 273.183594 610.769531 287.074219 609.226562 290.777344 C 608.609375 292.9375 605.832031 294.480469 604.289062 294.480469 C 602.746094 294.171875 600.277344 292.320312 600.277344 290.777344 C 600.277344 289.234375 604.597656 284.914062 605.832031 285.222656 C 607.375 285.53125 609.535156 291.394531 608.609375 292.628906 C 607.683594 293.554688 602.128906 293.554688 600.894531 292.320312 C 599.96875 291.394531 600.585938 288 601.511719 286.765625 C 602.128906 285.53125 604.289062 284.914062 605.523438 285.222656 C 607.066406 285.839844 609.535156 290.46875 608.917969 292.011719 C 608.300781 293.246094 603.980469 294.480469 602.128906 293.554688 C 599.65625 292.628906 597.804688 287.074219 596.878906 283.371094 C 595.953125 279.667969 595.644531 273.800781 597.1875 271.640625 C 598.730469 270.097656 603.980469 269.480469 604.90625 270.714844 C 606.140625 272.257812 603.363281 282.136719 600.894531 283.679688 C 599.65625 284.914062 596.878906 284.914062 595.644531 283.988281 C 594.410156 283.0625 594.101562 278.125 594.101562 278.125 " clip-rule="nonzero"/></clipPath><clipPath id="d2545cf735"><path d="M 591.496094 249.363281 L 612.765625 249.363281 L 612.765625 268.4375 L 591.496094 268.4375 Z M 591.496094 249.363281 " clip-rule="nonzero"/></clipPath><clipPath id="3f970f1ee2"><path d="M 599.347656 261.457031 C 590.707031 253.429688 592.25 250.960938 593.484375 250.34375 C 594.410156 249.417969 595.953125 249.417969 597.496094 250.035156 C 601.203125 251.269531 611.386719 258.679688 612.621094 262.382812 C 612.929688 264.234375 612.003906 266.703125 610.769531 267.628906 C 609.535156 268.554688 606.140625 268.246094 604.90625 267.320312 C 603.980469 266.394531 603.363281 263.308594 603.980469 261.765625 C 604.289062 260.53125 606.140625 259.296875 607.375 259.296875 C 608.609375 258.988281 610.769531 259.605469 611.386719 260.53125 C 612.3125 261.765625 612.929688 264.851562 612.003906 266.085938 C 611.386719 267.320312 608.917969 268.554688 606.757812 268.246094 C 603.054688 267.628906 592.867188 260.839844 591.941406 256.824219 C 591.015625 254.664062 592.558594 250.652344 594.410156 249.726562 C 596.261719 248.800781 601.820312 251.269531 603.671875 253.121094 C 605.214844 254.664062 606.449219 257.441406 605.832031 258.679688 C 605.214844 260.222656 599.347656 261.457031 599.347656 261.457031 " clip-rule="nonzero"/></clipPath><clipPath id="3cf64decbf"><path d="M 636.265625 269 L 687.4375 269 L 687.4375 294.523438 L 636.265625 294.523438 Z M 636.265625 269 " clip-rule="nonzero"/></clipPath><clipPath id="16b27125d0"><path d="M 640.710938 279.976562 C 636.695312 271.949219 637.929688 270.40625 639.167969 269.789062 C 640.710938 269.480469 644.414062 271.332031 644.414062 270.714844 C 644.722656 270.714844 642.253906 269.171875 642.253906 269.171875 C 642.5625 268.863281 646.574219 269.789062 647.191406 271.023438 C 647.808594 272.566406 643.796875 277.8125 644.414062 278.125 C 644.722656 278.433594 647.191406 274.417969 648.117188 274.726562 C 649.96875 275.34375 649.660156 287.382812 651.820312 287.691406 C 654.289062 288.308594 660.773438 273.800781 664.476562 271.332031 C 666.636719 269.789062 668.488281 269.171875 670.339844 269.171875 C 672.5 269.480469 674.351562 270.40625 676.203125 272.257812 C 679.601562 275.035156 686.390625 283.988281 687.007812 288 C 687.625 290.160156 687.007812 292.320312 685.773438 293.246094 C 684.847656 294.171875 682.6875 294.789062 681.761719 294.171875 C 680.21875 293.554688 678.367188 288 679.292969 287.074219 C 680.21875 285.839844 686.082031 286.148438 687.007812 287.382812 C 687.625 288.617188 685.15625 294.171875 683.613281 294.480469 C 680.835938 294.789062 674.96875 278.433594 670.648438 278.433594 C 666.636719 278.125 661.699219 288.925781 657.992188 291.394531 C 655.832031 293.246094 653.980469 294.171875 651.820312 294.480469 C 649.660156 294.480469 646.882812 294.171875 645.03125 292.320312 C 642.253906 289.542969 638.546875 280.285156 639.167969 276.269531 C 639.476562 273.183594 642.871094 269.171875 644.722656 269.171875 C 645.648438 269.171875 647.5 270.714844 647.808594 272.257812 C 648.117188 273.492188 647.5 276.269531 646.265625 277.195312 C 644.722656 278.125 637.929688 276.886719 636.695312 275.652344 C 636.078125 274.417969 636.695312 272.257812 637.621094 271.332031 C 638.546875 270.097656 641.019531 269.171875 642.5625 269.789062 C 644.722656 270.40625 648.734375 276.886719 648.117188 278.742188 C 647.5 279.976562 640.710938 279.976562 640.710938 279.976562 " clip-rule="nonzero"/></clipPath><clipPath id="ff68794f05"><path d="M 674.558594 261.574219 L 754.136719 261.574219 L 754.136719 339.957031 L 674.558594 339.957031 Z M 674.558594 261.574219 " clip-rule="nonzero"/></clipPath><clipPath id="61f6fdaa76"><path d="M 725.28125 273.492188 C 737.316406 263 739.789062 267.011719 739.171875 268.554688 C 738.554688 270.714844 730.21875 270.714844 727.75 273.492188 C 725.28125 275.960938 722.503906 282.136719 723.429688 283.679688 C 724.664062 285.222656 731.144531 284.605469 734.539062 283.0625 C 738.863281 281.519531 743.183594 273.183594 746.578125 272.875 C 748.738281 272.875 750.898438 274.417969 752.132812 276.886719 C 755.21875 282.136719 753.984375 300.964844 752.441406 309.296875 C 751.824219 314.851562 750.589844 318.558594 748.429688 322.261719 C 745.960938 326.273438 743.492188 329.359375 739.171875 331.828125 C 732.996094 335.839844 719.726562 338.929688 712.625 339.546875 C 707.6875 339.855469 704.910156 339.238281 700.28125 338.003906 C 693.488281 335.839844 680.835938 330.59375 677.4375 326.582031 C 675.894531 324.421875 674.96875 321.335938 675.585938 320.101562 C 676.203125 318.558594 679.292969 317.320312 680.835938 317.941406 C 682.378906 318.25 684.230469 320.71875 684.230469 322.261719 C 684.230469 323.496094 683.304688 325.65625 682.378906 326.273438 C 680.835938 326.582031 675.585938 324.730469 674.96875 323.496094 C 674.660156 321.953125 677.4375 318.25 680.21875 317.632812 C 686.082031 316.394531 702.441406 329.667969 712.007812 330.285156 C 719.726562 330.902344 728.675781 327.507812 733.304688 324.730469 C 736.699219 322.878906 738.554688 320.71875 740.097656 318.25 C 741.640625 315.46875 742.566406 313.308594 743.183594 309.296875 C 744.726562 301.890625 740.714844 280.59375 743.492188 275.652344 C 744.417969 273.800781 746.269531 272.875 747.8125 272.875 C 749.046875 272.875 751.515625 274.417969 752.132812 275.652344 C 752.441406 277.503906 751.207031 280.902344 749.046875 283.371094 C 745.34375 287.691406 733.304688 293.554688 727.132812 294.480469 C 723.121094 294.789062 718.800781 293.863281 716.636719 292.320312 C 715.09375 291.394531 714.476562 289.851562 714.167969 287.691406 C 713.550781 284.605469 714.167969 278.742188 716.328125 274.726562 C 718.492188 270.097656 724.664062 263.925781 728.058594 262.382812 C 730.21875 261.765625 733.304688 261.765625 733.613281 262.691406 C 733.921875 263.308594 730.21875 265.777344 730.21875 266.085938 C 730.527344 266.394531 734.847656 262.691406 736.699219 263 C 737.9375 263.308594 739.480469 265.46875 739.480469 267.320312 C 739.480469 270.714844 732.996094 280.285156 729.910156 281.210938 C 728.058594 281.828125 725.589844 280.902344 724.664062 279.667969 C 723.738281 278.433594 725.28125 273.492188 725.28125 273.492188 " clip-rule="nonzero"/></clipPath></defs><g clip-path="url(#320f649ec8)"><g clip-path="url(#1ca23b2fe5)"><path fill="#c33c09" d="M 259.210938 224.109375 L 342.238281 224.109375 L 342.238281 309.40625 L 259.210938 309.40625 Z M 259.210938 224.109375 " fill-opacity="1" fill-rule="nonzero"/></g></g><g clip-path="url(#96a5bb7698)"><g clip-path="url(#dd0da37d6f)"><path fill="#c33c09" d="M 349.339844 253.738281 L 416.625 253.738281 L 416.625 319.484375 L 349.339844 319.484375 Z M 349.339844 253.738281 " fill-opacity="1" fill-rule="nonzero"/></g></g><g clip-path="url(#cd77cb01e8)"><g clip-path="url(#e14e5656d6)"><path fill="#c33c09" d="M 422.179688 248.492188 L 504.582031 248.492188 L 504.582031 313 L 422.179688 313 Z M 422.179688 248.492188 " fill-opacity="1" fill-rule="nonzero"/></g></g><g clip-path="url(#7e6a0ecd1c)"><g clip-path="url(#8a17e8c2b5)"><path fill="#c33c09" d="M 516.320312 238.613281 L 563.238281 238.613281 L 563.238281 318.519531 L 516.320312 318.519531 Z M 516.320312 238.613281 " fill-opacity="1" fill-rule="nonzero"/></g></g><g clip-path="url(#4fcb603ae4)"><g clip-path="url(#ab94dc6af1)"><path fill="#c33c09" d="M 581.757812 257.75 L 621.882812 257.75 L 621.882812 307.125 L 581.757812 307.125 Z M 581.757812 257.75 " fill-opacity="1" fill-rule="nonzero"/></g></g><g clip-path="url(#d2545cf735)"><g clip-path="url(#3f970f1ee2)"><path fill="#c33c09" d="M 578.667969 237.378906 L 624.917969 237.378906 L 624.917969 280.59375 L 578.667969 280.59375 Z M 578.667969 237.378906 " fill-opacity="1" fill-rule="nonzero"/></g></g><g clip-path="url(#3cf64decbf)"><g clip-path="url(#16b27125d0)"><path fill="#c33c09" d="M 624.351562 256.824219 L 699.746094 256.824219 L 699.746094 306.828125 L 624.351562 306.828125 Z M 624.351562 256.824219 " fill-opacity="1" fill-rule="nonzero"/></g></g><g clip-path="url(#ff68794f05)"><g clip-path="url(#61f6fdaa76)"><path fill="#c33c09" d="M 662.625 250.035156 L 764.878906 250.035156 L 764.878906 351.890625 L 662.625 351.890625 Z M 662.625 250.035156 " fill-opacity="1" fill-rule="nonzero"/></g></g></svg>