<svg xmlns="http://www.w3.org/2000/svg" xmlns:xlink="http://www.w3.org/1999/xlink" width="1366" zoomAndPan="magnify" viewBox="0 0 1024.5 576" height="768" preserveAspectRatio="xMidYMid meet" version="1.0"><defs><clipPath id="1fa8c35d19"><path d="M 210.726562 269.449219 L 263.855469 269.449219 L 263.855469 297.660156 L 210.726562 297.660156 Z M 210.726562 269.449219 " clip-rule="nonzero"/></clipPath><clipPath id="d53689dd08"><path d="M 234.457031 274.351562 C 235.710938 282.195312 232.257812 282.824219 231.003906 282.195312 C 229.433594 281.253906 228.496094 276.859375 228.496094 274.976562 C 228.808594 273.09375 230.0625 271.210938 231.632812 270.585938 C 232.886719 270.269531 235.710938 270.585938 236.652344 271.839844 C 237.59375 272.46875 238.535156 274.664062 237.90625 275.917969 C 236.964844 277.800781 227.554688 277.488281 224.414062 279.058594 C 222.53125 280.3125 220.964844 281.566406 220.335938 283.136719 C 220.023438 284.707031 220.335938 287.53125 221.277344 288.46875 C 223.160156 289.726562 228.179688 287.84375 231.632812 286.273438 C 236.023438 283.765625 241.359375 273.09375 244.8125 273.410156 C 247.636719 274.035156 247.949219 282.507812 251.085938 285.019531 C 254.226562 287.84375 261.753906 287.53125 263.011719 290.039062 C 263.953125 291.921875 262.695312 295.6875 261.128906 296.628906 C 259.871094 297.570312 256.421875 296.941406 255.480469 296 C 254.539062 294.433594 255.792969 288.785156 257.363281 288.15625 C 258.617188 287.53125 263.636719 290.980469 263.636719 292.550781 C 263.953125 294.117188 261.128906 296.628906 258.929688 297.257812 C 255.792969 298.199219 249.832031 296 246.378906 294.117188 C 243.554688 291.921875 241.046875 288.46875 240.105469 285.332031 C 239.164062 282.195312 239.476562 276.859375 240.730469 274.976562 C 241.671875 274.035156 243.554688 273.09375 244.8125 273.410156 C 246.378906 274.035156 248.890625 277.800781 248.578125 280.3125 C 247.949219 284.390625 240.417969 292.234375 235.398438 294.746094 C 230.691406 297.257812 223.789062 297.570312 219.707031 296.941406 C 217.199219 296.316406 215 295.058594 213.746094 293.175781 C 212.175781 290.980469 210.609375 287.84375 210.921875 285.019531 C 211.234375 281.253906 214.375 275.292969 217.824219 272.78125 C 221.277344 270.269531 231.632812 269.015625 232.257812 269.957031 C 232.574219 270.585938 228.496094 273.722656 228.808594 274.035156 C 229.121094 274.664062 234.457031 270.269531 236.023438 270.898438 C 237.28125 271.839844 238.222656 277.175781 237.28125 279.058594 C 236.652344 280.625 233.828125 282.824219 232.257812 282.507812 C 229.75 281.882812 225.042969 275.605469 225.355469 273.410156 C 225.671875 271.527344 228.808594 269.644531 230.375 269.644531 C 231.945312 269.957031 234.457031 274.351562 234.457031 274.351562 " clip-rule="nonzero"/></clipPath><clipPath id="fb798dcc8e"><path d="M 283.167969 271 L 336.515625 271 L 336.515625 304.714844 L 283.167969 304.714844 Z M 283.167969 271 " clip-rule="nonzero"/></clipPath><clipPath id="0993b8123e"><path d="M 288.425781 281.253906 C 284.976562 274.664062 287.171875 271.839844 288.742188 271.210938 C 289.996094 270.898438 292.191406 271.527344 293.132812 272.46875 C 294.074219 274.035156 291.878906 277.488281 292.507812 280 C 293.449219 283.136719 296.585938 289.410156 299.722656 290.039062 C 303.488281 290.351562 310.707031 278.429688 314.785156 277.488281 C 316.667969 276.859375 319.179688 277.488281 320.121094 278.429688 C 321.0625 279.058594 322.003906 281.253906 321.6875 282.507812 C 321.375 283.765625 317.921875 286.273438 317.921875 286.273438 C 317.921875 286.589844 320.121094 283.136719 321.6875 283.449219 C 325.140625 283.765625 335.496094 293.492188 336.121094 297.570312 C 336.4375 300.394531 333.613281 304.472656 332.359375 304.472656 C 330.789062 304.789062 326.710938 300.082031 327.335938 298.511719 C 327.652344 297.257812 333.296875 295.375 334.554688 296 C 335.808594 296.941406 336.75 300.394531 336.121094 301.648438 C 335.496094 303.21875 333.296875 304.789062 331.101562 304.472656 C 327.964844 304.472656 321.6875 298.824219 318.550781 295.058594 C 315.726562 291.921875 312.589844 287.53125 312.273438 284.078125 C 312.273438 281.566406 314.472656 277.800781 316.039062 277.175781 C 316.980469 276.546875 318.550781 276.859375 319.179688 277.488281 C 320.433594 278.742188 321.6875 281.566406 321.375 283.449219 C 320.746094 285.960938 317.609375 288.785156 314.472656 290.667969 C 310.390625 293.492188 302.234375 298.511719 297.527344 296.941406 C 291.878906 295.375 284.035156 284.390625 283.40625 279.683594 C 283.09375 276.546875 285.601562 272.152344 287.800781 271.527344 C 289.683594 270.898438 294.703125 273.722656 295.644531 275.605469 C 296.585938 277.175781 295.957031 280.625 294.703125 281.882812 C 293.449219 282.824219 288.425781 281.253906 288.425781 281.253906 " clip-rule="nonzero"/></clipPath><clipPath id="249ba22c47"><path d="M 361.339844 261.824219 L 387.671875 261.824219 L 387.671875 304.640625 L 361.339844 304.640625 Z M 361.339844 261.824219 " clip-rule="nonzero"/></clipPath><clipPath id="8dea0419a1"><path d="M 364.050781 272.78125 C 361.539062 264.9375 363.109375 262.425781 364.363281 262.113281 C 366.875 261.800781 371.265625 265.25 374.089844 269.015625 C 379.113281 274.976562 387.582031 292.863281 387.269531 298.824219 C 387.269531 301.335938 385.699219 303.847656 384.445312 304.160156 C 382.878906 304.789062 379.113281 303.21875 378.484375 301.964844 C 377.855469 300.394531 380.054688 295.6875 381.621094 295.375 C 383.191406 294.746094 387.269531 297.570312 387.269531 299.140625 C 387.582031 300.707031 384.757812 304.160156 383.191406 304.472656 C 381.9375 304.789062 378.796875 302.90625 378.484375 301.648438 C 377.855469 300.082031 378.796875 297.257812 379.738281 296 C 380.996094 295.375 382.878906 294.746094 384.132812 295.375 C 385.699219 296 387.582031 298.511719 387.582031 300.082031 C 387.269531 301.335938 385.699219 303.847656 384.445312 304.160156 C 382.878906 304.789062 380.367188 303.847656 378.484375 301.964844 C 374.089844 297.570312 370.011719 276.546875 366.246094 271.527344 C 364.363281 269.328125 361.851562 269.015625 361.539062 267.445312 C 361.226562 266.191406 363.109375 262.742188 364.363281 262.113281 C 365.933594 261.484375 369.070312 262.742188 370.324219 264.308594 C 371.894531 266.503906 372.835938 272.78125 371.582031 274.035156 C 370.324219 274.976562 364.050781 272.78125 364.050781 272.78125 " clip-rule="nonzero"/></clipPath><clipPath id="94da5570b2"><path d="M 363.3125 269.355469 L 412.542969 269.355469 L 412.542969 290.503906 L 363.3125 290.503906 Z M 363.3125 269.355469 " clip-rule="nonzero"/></clipPath><clipPath id="7b83b0b6fd"><path d="M 366.558594 280.941406 C 398.253906 275.292969 405.46875 268.386719 408.921875 269.644531 C 411.117188 270.585938 413 275.292969 412.371094 276.859375 C 411.746094 278.117188 408.609375 279.058594 407.039062 279.058594 C 405.785156 278.742188 404.214844 277.175781 403.902344 275.917969 C 403.273438 274.664062 404.214844 271.527344 405.46875 270.585938 C 406.410156 269.644531 408.921875 269.328125 409.863281 269.957031 C 411.117188 270.898438 412.6875 275.292969 411.746094 277.488281 C 409.863281 281.253906 399.195312 284.390625 391.976562 286.273438 C 384.445312 288.785156 371.894531 291.292969 367.5 290.039062 C 365.304688 289.410156 363.734375 287.84375 363.421875 286.273438 C 363.421875 284.707031 366.558594 280.941406 366.558594 280.941406 " clip-rule="nonzero"/></clipPath><clipPath id="153a406d7f"><path d="M 404.167969 258.613281 L 482.308594 258.613281 L 482.308594 313.9375 L 404.167969 313.9375 Z M 404.167969 258.613281 " clip-rule="nonzero"/></clipPath><clipPath id="e3cb620762"><path d="M 404.84375 271.210938 C 415.195312 259.917969 419.277344 258.660156 421.160156 259.289062 C 422.414062 259.917969 423.667969 262.742188 423.355469 264.308594 C 423.355469 265.5625 419.902344 266.503906 419.902344 268.074219 C 419.589844 269.957031 422.726562 271.527344 423.667969 274.351562 C 425.867188 279.683594 424.609375 298.824219 427.121094 299.453125 C 429.632812 299.765625 433.398438 285.960938 437.789062 282.195312 C 441.242188 279.371094 446.261719 276.546875 449.714844 277.175781 C 453.164062 277.800781 455.988281 281.882812 458.5 285.648438 C 462.265625 290.667969 464.148438 304.472656 467.914062 305.414062 C 470.738281 306.355469 475.445312 298.511719 477.953125 298.824219 C 479.835938 299.140625 481.71875 301.335938 482.035156 302.90625 C 482.347656 304.160156 481.71875 306.355469 480.464844 306.984375 C 478.894531 307.925781 473.246094 306.355469 472.933594 305.101562 C 472.304688 303.847656 475.757812 299.140625 477.640625 298.824219 C 478.894531 298.511719 480.777344 299.765625 481.40625 301.023438 C 482.035156 302.277344 482.035156 305.101562 480.777344 306.671875 C 478.894531 309.496094 470.109375 313.574219 466.34375 313.886719 C 464.148438 313.886719 462.890625 313.261719 461.324219 312.003906 C 458.5 310.121094 455.046875 305.730469 453.164062 301.648438 C 451.28125 297.257812 452.539062 287.84375 450.339844 286.589844 C 448.773438 285.648438 446.890625 287.214844 444.691406 288.46875 C 440.300781 291.609375 432.140625 306.671875 427.75 307.925781 C 425.867188 308.867188 424.296875 308.238281 423.042969 306.984375 C 420.84375 305.730469 419.277344 303.53125 417.707031 300.082031 C 415.195312 293.492188 413.3125 275.292969 414.253906 267.761719 C 414.882812 263.996094 416.136719 259.601562 417.707031 258.976562 C 419.277344 258.347656 423.042969 260.230469 423.355469 261.800781 C 423.984375 264.9375 414.570312 276.859375 410.488281 278.429688 C 408.609375 279.371094 405.46875 278.429688 404.527344 277.175781 C 403.585938 275.917969 404.84375 271.210938 404.84375 271.210938 " clip-rule="nonzero"/></clipPath><clipPath id="646823e3be"><path d="M 498 276.425781 L 554.996094 276.425781 L 554.996094 319.445312 L 498 319.445312 Z M 498 276.425781 " clip-rule="nonzero"/></clipPath><clipPath id="99b908c235"><path d="M 504.941406 291.921875 C 511.84375 293.804688 519.6875 288.46875 519.375 287.53125 C 519.375 286.589844 515.292969 285.960938 513.726562 286.589844 C 511.84375 287.214844 509.648438 289.097656 508.707031 291.609375 C 507.765625 295.375 508.707031 306.355469 512.15625 309.179688 C 514.980469 311.691406 521.257812 311.0625 526.589844 309.496094 C 533.808594 307.613281 545.730469 294.746094 550.4375 295.058594 C 552.320312 295.375 554.203125 297.257812 554.832031 298.824219 C 555.144531 300.082031 553.890625 303.53125 552.320312 303.847656 C 550.753906 304.472656 545.730469 301.964844 545.417969 300.394531 C 545.105469 299.140625 548.242188 295.375 549.8125 295.058594 C 551.378906 295.058594 554.203125 296.941406 554.519531 298.199219 C 555.144531 299.765625 554.519531 301.648438 552.949219 303.847656 C 549.183594 308.238281 535.0625 317.652344 526.277344 318.90625 C 519.058594 320.164062 509.019531 318.90625 504.625 314.828125 C 500.234375 310.75 498.664062 300.707031 498.351562 295.6875 C 498.351562 292.234375 499.292969 289.410156 500.546875 286.902344 C 501.800781 284.390625 503.683594 281.566406 505.882812 280 C 508.078125 278.429688 510.902344 277.488281 513.726562 277.175781 C 517.175781 276.546875 522.824219 276.234375 525.335938 278.117188 C 527.847656 280 529.414062 285.019531 528.789062 288.15625 C 528.472656 291.609375 525.335938 295.6875 521.882812 297.882812 C 517.804688 300.707031 509.019531 303.53125 504.941406 302.589844 C 501.800781 301.648438 498.035156 297.570312 498.035156 295.6875 C 498.351562 294.117188 504.941406 291.921875 504.941406 291.921875 " clip-rule="nonzero"/></clipPath><clipPath id="955d85c983"><path d="M 557 270.722656 L 627.476562 270.722656 L 627.476562 308.097656 L 557 308.097656 Z M 557 270.722656 " clip-rule="nonzero"/></clipPath><clipPath id="d87f3cb347"><path d="M 560.480469 283.765625 C 558.597656 271.839844 562.992188 271.527344 565.1875 272.78125 C 568.636719 274.351562 572.089844 282.195312 573.972656 287.214844 C 575.226562 291.609375 574.285156 300.707031 575.542969 300.707031 C 577.109375 301.023438 579.621094 284.707031 584.015625 279.683594 C 588.09375 275.292969 594.996094 271.839844 599.390625 270.898438 C 602.214844 270.585938 604.097656 270.898438 606.605469 272.46875 C 610.371094 274.351562 616.019531 280.3125 619.472656 285.332031 C 622.921875 290.351562 627.003906 297.882812 627.316406 301.964844 C 627.628906 304.160156 626.6875 306.671875 625.433594 307.296875 C 624.179688 308.238281 621.039062 307.925781 619.785156 306.984375 C 618.84375 306.355469 617.902344 304.160156 618.214844 302.90625 C 618.53125 301.648438 620.726562 299.140625 622.296875 298.824219 C 623.550781 298.511719 625.433594 299.140625 626.375 300.394531 C 627.316406 301.335938 627.628906 304.472656 627.003906 306.042969 C 626.0625 307.296875 623.550781 308.554688 621.667969 307.925781 C 617.589844 306.671875 612.882812 290.351562 608.804688 285.648438 C 606.292969 282.507812 604.410156 280 601.898438 279.683594 C 599.074219 279.371094 595.308594 281.253906 592.484375 283.765625 C 588.09375 288.15625 584.957031 302.589844 581.503906 306.042969 C 579.933594 307.613281 578.679688 308.238281 577.109375 307.925781 C 574.914062 307.925781 572.402344 306.671875 570.207031 304.160156 C 565.8125 299.453125 557.027344 282.195312 557.027344 276.859375 C 557.34375 274.035156 558.597656 271.839844 560.167969 271.210938 C 561.421875 270.585938 563.933594 271.210938 565.1875 272.78125 C 567.382812 274.664062 569.894531 281.566406 568.953125 284.078125 C 568.324219 285.332031 565.5 286.589844 563.933594 286.273438 C 562.675781 286.273438 560.480469 283.765625 560.480469 283.765625 " clip-rule="nonzero"/></clipPath><clipPath id="ee3578ff20"><path d="M 651.222656 263.929688 L 668.375 263.929688 L 668.375 308 L 651.222656 308 Z M 651.222656 263.929688 " clip-rule="nonzero"/></clipPath><clipPath id="f146cfff54"><path d="M 652.417969 267.445312 C 659.949219 263.054688 661.519531 263.996094 663.089844 265.878906 C 666.226562 270.898438 669.363281 296.941406 667.796875 303.53125 C 667.167969 306.042969 665.597656 307.613281 664.34375 307.925781 C 662.773438 308.238281 659.007812 306.042969 658.382812 304.472656 C 657.753906 303.21875 658.382812 301.335938 659.636719 300.394531 C 660.578125 299.140625 664.03125 298.511719 664.972656 299.453125 C 666.539062 300.394531 667.167969 306.042969 665.914062 306.984375 C 664.972656 307.925781 660.265625 307.296875 658.382812 305.101562 C 654.929688 301.023438 654.929688 284.390625 654.617188 276.859375 C 654.300781 271.839844 653.359375 265.878906 655.242188 264.308594 C 656.8125 263.367188 661.832031 264.621094 663.089844 265.878906 C 663.714844 266.820312 663.402344 268.703125 662.773438 270.269531 C 661.519531 272.152344 658.066406 275.292969 655.871094 275.292969 C 654.300781 275.605469 652.105469 274.035156 651.476562 272.78125 C 650.851562 271.210938 652.417969 267.445312 652.417969 267.445312 " clip-rule="nonzero"/></clipPath><clipPath id="297136dcff"><path d="M 643.707031 276.773438 L 685.808594 276.773438 L 685.808594 291.972656 L 643.707031 291.972656 Z M 643.707031 276.773438 " clip-rule="nonzero"/></clipPath><clipPath id="91ea419194"><path d="M 651.792969 281.882812 C 657.753906 285.019531 676.265625 275.917969 681.289062 276.859375 C 683.484375 277.488281 685.367188 279.058594 685.679688 280.625 C 685.996094 282.195312 683.484375 285.960938 681.914062 286.273438 C 680.660156 286.589844 677.835938 285.019531 676.894531 283.765625 C 676.265625 282.507812 676.265625 280.3125 676.894531 279.371094 C 678.148438 278.117188 683.796875 277.488281 684.738281 278.742188 C 685.679688 279.683594 685.367188 283.765625 683.796875 285.332031 C 681.601562 288.15625 673.757812 289.097656 668.109375 290.039062 C 661.519531 290.980469 650.851562 293.175781 647.085938 290.667969 C 644.886719 289.410156 643.320312 284.707031 643.945312 283.449219 C 644.886719 281.882812 651.792969 281.882812 651.792969 281.882812 " clip-rule="nonzero"/></clipPath><clipPath id="57acd34688"><path d="M 712.589844 273.316406 L 725.640625 273.316406 L 725.640625 301.199219 L 712.589844 301.199219 Z M 712.589844 273.316406 " clip-rule="nonzero"/></clipPath><clipPath id="5611eddd45"><path d="M 722.394531 278.117188 C 724.589844 299.765625 722.078125 301.335938 720.511719 301.023438 C 718.941406 300.707031 716.433594 296.941406 716.433594 295.375 C 716.433594 294.117188 718 292.234375 719.257812 291.921875 C 720.511719 291.292969 723.960938 291.921875 724.902344 293.175781 C 725.84375 294.433594 725.84375 297.570312 724.902344 298.824219 C 724.277344 300.082031 722.394531 301.023438 721.136719 301.023438 C 719.882812 301.023438 718.316406 300.394531 717.375 298.824219 C 714.863281 295.6875 711.726562 282.195312 712.980469 278.117188 C 713.292969 275.605469 715.492188 273.410156 717.058594 273.410156 C 718.628906 273.410156 722.394531 278.117188 722.394531 278.117188 " clip-rule="nonzero"/></clipPath><clipPath id="e2cc523668"><path d="M 710.277344 255.84375 L 733.222656 255.84375 L 733.222656 268.320312 L 710.277344 268.320312 Z M 710.277344 255.84375 " clip-rule="nonzero"/></clipPath><clipPath id="d32e90a307"><path d="M 718.941406 267.761719 C 709.84375 261.171875 709.84375 257.71875 711.410156 256.777344 C 713.921875 254.582031 727.726562 257.09375 730.867188 259.601562 C 732.75 260.859375 733.375 263.367188 733.0625 264.9375 C 732.433594 266.191406 729.609375 268.386719 728.355469 268.074219 C 726.785156 267.761719 723.648438 263.054688 723.960938 261.800781 C 724.589844 260.230469 728.984375 258.660156 730.550781 259.289062 C 731.808594 259.917969 733.375 262.738281 733.0625 264.308594 C 732.75 265.878906 729.925781 267.761719 727.414062 268.074219 C 723.335938 268.703125 713.609375 266.503906 711.410156 263.679688 C 710.15625 261.800781 709.84375 257.71875 711.410156 256.777344 C 712.980469 255.210938 723.335938 258.347656 724.902344 260.859375 C 726.160156 262.425781 725.53125 265.878906 724.277344 266.820312 C 723.335938 268.074219 718.941406 267.761719 718.941406 267.761719 " clip-rule="nonzero"/></clipPath><clipPath id="8d10d0046d"><path d="M 760.152344 273.515625 L 813.253906 273.515625 L 813.253906 308.449219 L 760.152344 308.449219 Z M 760.152344 273.515625 " clip-rule="nonzero"/></clipPath><clipPath id="d20f249f4c"><path d="M 784.523438 285.960938 C 778.5625 283.765625 776.050781 286.273438 774.480469 287.84375 C 772.914062 289.410156 770.402344 291.609375 770.402344 293.492188 C 770.089844 295.375 771.03125 297.570312 773.226562 298.511719 C 778.246094 301.023438 802.722656 290.039062 808.683594 291.609375 C 811.195312 292.234375 812.765625 293.804688 813.078125 295.058594 C 813.390625 296.316406 813.078125 298.824219 812.136719 299.453125 C 810.566406 300.394531 804.917969 299.453125 804.292969 298.199219 C 803.664062 296.941406 806.488281 291.921875 808.058594 291.609375 C 809.625 291.292969 812.449219 293.175781 813.078125 294.746094 C 813.390625 296.316406 812.136719 298.824219 809.941406 300.707031 C 805.546875 304.160156 792.054688 307.613281 784.210938 308.238281 C 777.621094 308.554688 770.402344 307.925781 766.324219 305.101562 C 763.1875 303.21875 760.675781 299.453125 760.363281 296 C 760.363281 290.667969 767.265625 280 771.03125 276.546875 C 773.539062 274.351562 775.738281 273.722656 778.5625 273.722656 C 781.699219 273.722656 787.976562 275.917969 789.859375 278.117188 C 791.113281 279.683594 791.425781 282.824219 790.484375 284.390625 C 789.859375 285.648438 784.523438 285.960938 784.523438 285.960938 " clip-rule="nonzero"/></clipPath></defs><g clip-path="url(#1fa8c35d19)"><g clip-path="url(#d53689dd08)"><path fill="#c33c09" d="M 198.371094 257.09375 L 276.414062 257.09375 L 276.414062 309.808594 L 198.371094 309.808594 Z M 198.371094 257.09375 " fill-opacity="1" fill-rule="nonzero"/></g></g><g clip-path="url(#fb798dcc8e)"><g clip-path="url(#0993b8123e)"><path fill="#c33c09" d="M 270.855469 258.660156 L 348.597656 258.660156 L 348.597656 317.023438 L 270.855469 317.023438 Z M 270.855469 258.660156 " fill-opacity="1" fill-rule="nonzero"/></g></g><g clip-path="url(#249ba22c47)"><g clip-path="url(#8dea0419a1)"><path fill="#c33c09" d="M 348.675781 249.5625 L 400.136719 249.5625 L 400.136719 317.304688 L 348.675781 317.304688 Z M 348.675781 249.5625 " fill-opacity="1" fill-rule="nonzero"/></g></g><g clip-path="url(#94da5570b2)"><g clip-path="url(#7b83b0b6fd)"><path fill="#c33c09" d="M 350.871094 257.09375 L 424.984375 257.09375 L 424.984375 302.589844 L 350.871094 302.589844 Z M 350.871094 257.09375 " fill-opacity="1" fill-rule="nonzero"/></g></g><g clip-path="url(#153a406d7f)"><g clip-path="url(#e3cb620762)"><path fill="#c33c09" d="M 391.976562 246.421875 L 494.808594 246.421875 L 494.808594 326.4375 L 391.976562 326.4375 Z M 391.976562 246.421875 " fill-opacity="1" fill-rule="nonzero"/></g></g><g clip-path="url(#646823e3be)"><g clip-path="url(#99b908c235)"><path fill="#c33c09" d="M 485.484375 264.621094 L 567.324219 264.621094 L 567.324219 331.773438 L 485.484375 331.773438 Z M 485.484375 264.621094 " fill-opacity="1" fill-rule="nonzero"/></g></g><g clip-path="url(#955d85c983)"><g clip-path="url(#d87f3cb347)"><path fill="#c33c09" d="M 544.476562 258.347656 L 639.855469 258.347656 L 639.855469 320.476562 L 544.476562 320.476562 Z M 544.476562 258.347656 " fill-opacity="1" fill-rule="nonzero"/></g></g><g clip-path="url(#ee3578ff20)"><g clip-path="url(#f146cfff54)"><path fill="#c33c09" d="M 638.925781 250.503906 L 680.347656 250.503906 L 680.347656 320.722656 L 638.925781 320.722656 Z M 638.925781 250.503906 " fill-opacity="1" fill-rule="nonzero"/></g></g><g clip-path="url(#297136dcff)"><g clip-path="url(#91ea419194)"><path fill="#c33c09" d="M 631.394531 264.308594 L 698.269531 264.308594 L 698.269531 303.21875 L 631.394531 303.21875 Z M 631.394531 264.308594 " fill-opacity="1" fill-rule="nonzero"/></g></g><g clip-path="url(#57acd34688)"><g clip-path="url(#5611eddd45)"><path fill="#c33c09" d="M 700.429688 260.859375 L 738.398438 260.859375 L 738.398438 313.507812 L 700.429688 313.507812 Z M 700.429688 260.859375 " fill-opacity="1" fill-rule="nonzero"/></g></g><g clip-path="url(#e2cc523668)"><g clip-path="url(#d32e90a307)"><path fill="#c33c09" d="M 698.230469 244.226562 L 745.988281 244.226562 L 745.988281 280.941406 L 698.230469 280.941406 Z M 698.230469 244.226562 " fill-opacity="1" fill-rule="nonzero"/></g></g><g clip-path="url(#8d10d0046d)"><g clip-path="url(#d20f249f4c)"><path fill="#c33c09" d="M 747.808594 261.171875 L 825.59375 261.171875 L 825.59375 320.789062 L 747.808594 320.789062 Z M 747.808594 261.171875 " fill-opacity="1" fill-rule="nonzero"/></g></g></svg>