<svg xmlns="http://www.w3.org/2000/svg" xmlns:xlink="http://www.w3.org/1999/xlink" zoomAndPan="magnify" preserveAspectRatio="xMidYMid meet" version="1.0" viewBox="480.35 256.35 63.27 63.27"><defs><filter x="0%" y="0%" width="100%" height="100%" id="e65e2a0c8f"><feColorMatrix values="0 0 0 0 1 0 0 0 0 1 0 0 0 0 1 0 0 0 1 0" color-interpolation-filters="sRGB"/></filter><mask id="1095b15999"><g filter="url(#e65e2a0c8f)"><rect x="-102.45" width="1229.4" fill="#000000" y="-57.6" height="691.2" fill-opacity="0.9"/></g></mask><clipPath id="3c3d2dc5b3"><path d="M 0.640625 0.640625 L 63.609375 0.640625 L 63.609375 63.609375 L 0.640625 63.609375 Z M 0.640625 0.640625 " clip-rule="nonzero"/></clipPath><clipPath id="fb21924318"><rect x="0" width="64" y="0" height="64"/></clipPath></defs><g mask="url(#1095b15999)"><g transform="matrix(1, 0, 0, 1, 480, 256)"><g clip-path="url(#fb21924318)"><path fill="#f6f2e7" d="M 1.339844 31.996094 C 1.339844 30.992188 1.390625 29.988281 1.488281 28.992188 C 1.585938 27.992188 1.734375 27 1.929688 26.015625 C 2.125 25.03125 2.367188 24.058594 2.660156 23.097656 C 2.953125 22.136719 3.289062 21.191406 3.671875 20.265625 C 4.058594 19.335938 4.488281 18.429688 4.960938 17.542969 C 5.433594 16.660156 5.949219 15.800781 6.507812 14.964844 C 7.0625 14.128906 7.660156 13.324219 8.296875 12.546875 C 8.933594 11.773438 9.609375 11.027344 10.320312 10.320312 C 11.027344 9.609375 11.773438 8.933594 12.546875 8.296875 C 13.324219 7.660156 14.128906 7.0625 14.964844 6.507812 C 15.800781 5.949219 16.660156 5.433594 17.542969 4.960938 C 18.429688 4.488281 19.335938 4.058594 20.265625 3.671875 C 21.191406 3.289062 22.136719 2.953125 23.097656 2.660156 C 24.058594 2.367188 25.03125 2.125 26.015625 1.929688 C 27 1.734375 27.992188 1.585938 28.992188 1.488281 C 29.988281 1.390625 30.992188 1.339844 31.996094 1.339844 C 33 1.339844 34 1.390625 35 1.488281 C 36 1.585938 36.992188 1.734375 37.976562 1.929688 C 38.960938 2.125 39.933594 2.367188 40.894531 2.660156 C 41.855469 2.953125 42.800781 3.289062 43.726562 3.671875 C 44.65625 4.058594 45.5625 4.488281 46.445312 4.960938 C 47.332031 5.433594 48.191406 5.949219 49.027344 6.507812 C 49.863281 7.0625 50.667969 7.660156 51.441406 8.296875 C 52.21875 8.933594 52.960938 9.609375 53.671875 10.320312 C 54.382812 11.027344 55.054688 11.773438 55.691406 12.546875 C 56.328125 13.324219 56.925781 14.128906 57.484375 14.964844 C 58.042969 15.800781 58.558594 16.660156 59.03125 17.542969 C 59.503906 18.429688 59.933594 19.335938 60.316406 20.265625 C 60.703125 21.191406 61.039062 22.136719 61.332031 23.097656 C 61.621094 24.058594 61.867188 25.03125 62.0625 26.015625 C 62.257812 27 62.40625 27.992188 62.503906 28.992188 C 62.601562 29.988281 62.652344 30.992188 62.652344 31.996094 C 62.652344 33 62.601562 34 62.503906 35 C 62.40625 36 62.257812 36.992188 62.0625 37.976562 C 61.867188 38.960938 61.621094 39.933594 61.332031 40.894531 C 61.039062 41.855469 60.703125 42.800781 60.316406 43.726562 C 59.933594 44.65625 59.503906 45.5625 59.03125 46.445312 C 58.558594 47.332031 58.042969 48.191406 57.484375 49.027344 C 56.925781 49.863281 56.328125 50.667969 55.691406 51.441406 C 55.054688 52.21875 54.382812 52.960938 53.671875 53.671875 C 52.960938 54.382812 52.21875 55.054688 51.441406 55.691406 C 50.667969 56.328125 49.863281 56.925781 49.027344 57.484375 C 48.191406 58.042969 47.332031 58.558594 46.445312 59.03125 C 45.5625 59.503906 44.65625 59.933594 43.726562 60.316406 C 42.800781 60.703125 41.855469 61.039062 40.894531 61.332031 C 39.933594 61.621094 38.960938 61.867188 37.976562 62.0625 C 36.992188 62.257812 36 62.40625 35 62.503906 C 34 62.601562 33 62.652344 31.996094 62.652344 C 30.992188 62.652344 29.988281 62.601562 28.992188 62.503906 C 27.992188 62.40625 27 62.257812 26.015625 62.0625 C 25.03125 61.867188 24.058594 61.621094 23.097656 61.332031 C 22.136719 61.039062 21.191406 60.703125 20.265625 60.316406 C 19.335938 59.933594 18.429688 59.503906 17.542969 59.03125 C 16.660156 58.558594 15.800781 58.042969 14.964844 57.484375 C 14.128906 56.925781 13.324219 56.328125 12.546875 55.691406 C 11.773438 55.054688 11.027344 54.382812 10.320312 53.671875 C 9.609375 52.960938 8.933594 52.21875 8.296875 51.441406 C 7.660156 50.667969 7.0625 49.863281 6.507812 49.027344 C 5.949219 48.191406 5.433594 47.332031 4.960938 46.445312 C 4.488281 45.5625 4.058594 44.65625 3.671875 43.726562 C 3.289062 42.800781 2.953125 41.855469 2.660156 40.894531 C 2.367188 39.933594 2.125 38.960938 1.929688 37.976562 C 1.734375 36.992188 1.585938 36 1.488281 35 C 1.390625 34 1.339844 33 1.339844 31.996094 Z M 1.339844 31.996094 " fill-opacity="1" fill-rule="nonzero"/><g clip-path="url(#3c3d2dc5b3)"><path fill="#c33c09" d="M 31.996094 0.382812 C 49.425781 0.382812 63.609375 14.566406 63.609375 31.996094 C 63.609375 49.425781 49.425781 63.609375 31.996094 63.609375 C 14.566406 63.609375 0.382812 49.425781 0.382812 31.996094 C 0.382812 14.566406 14.566406 0.382812 31.996094 0.382812 Z M 31.996094 61.691406 C 48.371094 61.691406 61.691406 48.371094 61.691406 31.996094 C 61.691406 15.621094 48.371094 2.296875 31.996094 2.296875 C 15.621094 2.296875 2.296875 15.621094 2.296875 31.996094 C 2.296875 48.371094 15.621094 61.691406 31.996094 61.691406 Z M 31.996094 61.691406 " fill-opacity="1" fill-rule="nonzero"/></g><path fill="#c33c09" d="M 34.535156 20.039062 L 22.855469 32.164062 L 34.558594 43.953125 L 37.277344 41.25 L 28.214844 32.121094 L 37.300781 22.695312 Z M 34.535156 20.039062 " fill-opacity="1" fill-rule="nonzero"/></g></g></g></svg>