<svg xmlns="http://www.w3.org/2000/svg" xmlns:xlink="http://www.w3.org/1999/xlink" zoomAndPan="magnify" preserveAspectRatio="xMidYMid meet" version="1.0" viewBox="480.35 256.35 63.27 63.27"><defs><filter x="0%" y="0%" width="100%" height="100%" id="57d8ca29e1"><feColorMatrix values="0 0 0 0 1 0 0 0 0 1 0 0 0 0 1 0 0 0 1 0" color-interpolation-filters="sRGB"/></filter><mask id="012f2279a9"><g filter="url(#57d8ca29e1)"><rect x="-102.45" width="1229.4" fill="#000000" y="-57.6" height="691.2" fill-opacity="0.9"/></g></mask><clipPath id="afa82bb7e1"><path d="M 0.640625 0.640625 L 63.351562 0.640625 L 63.351562 63.609375 L 0.640625 63.609375 Z M 0.640625 0.640625 " clip-rule="nonzero"/></clipPath><clipPath id="fb6324130e"><rect x="0" width="64" y="0" height="64"/></clipPath></defs><g mask="url(#012f2279a9)"><g transform="matrix(1, 0, 0, 1, 480, 256)"><g clip-path="url(#fb6324130e)"><path fill="#f6f2e7" d="M 62.652344 31.996094 C 62.652344 30.992188 62.601562 29.988281 62.503906 28.992188 C 62.40625 27.992188 62.257812 27 62.0625 26.015625 C 61.867188 25.03125 61.621094 24.058594 61.332031 23.097656 C 61.039062 22.136719 60.703125 21.191406 60.316406 20.265625 C 59.933594 19.335938 59.503906 18.429688 59.03125 17.542969 C 58.558594 16.660156 58.042969 15.800781 57.484375 14.964844 C 56.925781 14.128906 56.328125 13.324219 55.691406 12.546875 C 55.054688 11.773438 54.382812 11.027344 53.671875 10.320312 C 52.960938 9.609375 52.21875 8.933594 51.441406 8.296875 C 50.667969 7.660156 49.863281 7.0625 49.027344 6.507812 C 48.191406 5.949219 47.332031 5.433594 46.445312 4.960938 C 45.5625 4.488281 44.65625 4.058594 43.726562 3.671875 C 42.800781 3.289062 41.855469 2.953125 40.894531 2.660156 C 39.933594 2.367188 38.960938 2.125 37.976562 1.929688 C 36.992188 1.734375 36 1.585938 35 1.488281 C 34 1.390625 33 1.339844 31.996094 1.339844 C 30.992188 1.339844 29.988281 1.390625 28.992188 1.488281 C 27.992188 1.585938 27 1.734375 26.015625 1.929688 C 25.03125 2.125 24.058594 2.367188 23.097656 2.660156 C 22.136719 2.953125 21.191406 3.289062 20.265625 3.671875 C 19.335938 4.058594 18.429688 4.488281 17.542969 4.960938 C 16.660156 5.433594 15.800781 5.949219 14.964844 6.507812 C 14.128906 7.0625 13.324219 7.660156 12.546875 8.296875 C 11.773438 8.933594 11.027344 9.609375 10.320312 10.320312 C 9.609375 11.027344 8.933594 11.773438 8.296875 12.546875 C 7.660156 13.324219 7.0625 14.128906 6.507812 14.964844 C 5.949219 15.800781 5.433594 16.660156 4.960938 17.542969 C 4.488281 18.429688 4.058594 19.335938 3.671875 20.265625 C 3.289062 21.191406 2.953125 22.136719 2.660156 23.097656 C 2.367188 24.058594 2.125 25.03125 1.929688 26.015625 C 1.734375 27 1.585938 27.992188 1.488281 28.992188 C 1.390625 29.988281 1.339844 30.992188 1.339844 31.996094 C 1.339844 33 1.390625 34 1.488281 35 C 1.585938 36 1.734375 36.992188 1.929688 37.976562 C 2.125 38.960938 2.367188 39.933594 2.660156 40.894531 C 2.953125 41.855469 3.289062 42.800781 3.671875 43.726562 C 4.058594 44.65625 4.488281 45.5625 4.960938 46.445312 C 5.433594 47.332031 5.949219 48.191406 6.507812 49.027344 C 7.0625 49.863281 7.660156 50.667969 8.296875 51.441406 C 8.933594 52.21875 9.609375 52.960938 10.320312 53.671875 C 11.027344 54.382812 11.773438 55.054688 12.546875 55.691406 C 13.324219 56.328125 14.128906 56.925781 14.964844 57.484375 C 15.800781 58.042969 16.660156 58.558594 17.542969 59.03125 C 18.429688 59.503906 19.335938 59.933594 20.265625 60.316406 C 21.191406 60.703125 22.136719 61.039062 23.097656 61.332031 C 24.058594 61.621094 25.03125 61.867188 26.015625 62.0625 C 27 62.257812 27.992188 62.40625 28.992188 62.503906 C 29.988281 62.601562 30.992188 62.652344 31.996094 62.652344 C 33 62.652344 34 62.601562 35 62.503906 C 36 62.40625 36.992188 62.257812 37.976562 62.0625 C 38.960938 61.867188 39.933594 61.621094 40.894531 61.332031 C 41.855469 61.039062 42.800781 60.703125 43.726562 60.316406 C 44.65625 59.933594 45.5625 59.503906 46.445312 59.03125 C 47.332031 58.558594 48.191406 58.042969 49.027344 57.484375 C 49.863281 56.925781 50.667969 56.328125 51.441406 55.691406 C 52.21875 55.054688 52.960938 54.382812 53.671875 53.671875 C 54.382812 52.960938 55.054688 52.21875 55.691406 51.441406 C 56.328125 50.667969 56.925781 49.863281 57.484375 49.027344 C 58.042969 48.191406 58.558594 47.332031 59.03125 46.445312 C 59.503906 45.5625 59.933594 44.65625 60.316406 43.726562 C 60.703125 42.800781 61.039062 41.855469 61.332031 40.894531 C 61.621094 39.933594 61.867188 38.960938 62.0625 37.976562 C 62.257812 36.992188 62.40625 36 62.503906 35 C 62.601562 34 62.652344 33 62.652344 31.996094 Z M 62.652344 31.996094 " fill-opacity="1" fill-rule="nonzero"/><g clip-path="url(#afa82bb7e1)"><path fill="#c33c09" d="M 31.996094 0.382812 C 14.5625 0.382812 0.382812 14.566406 0.382812 31.996094 C 0.382812 49.425781 14.5625 63.609375 31.996094 63.609375 C 49.425781 63.609375 63.609375 49.425781 63.609375 31.996094 C 63.609375 14.566406 49.425781 0.382812 31.996094 0.382812 Z M 31.996094 61.691406 C 15.621094 61.691406 2.296875 48.371094 2.296875 31.996094 C 2.296875 15.621094 15.621094 2.296875 31.996094 2.296875 C 48.371094 2.296875 61.691406 15.621094 61.691406 31.996094 C 61.691406 48.371094 48.371094 61.691406 31.996094 61.691406 Z M 31.996094 61.691406 " fill-opacity="1" fill-rule="nonzero"/></g><path fill="#c33c09" d="M 29.457031 20.039062 L 41.132812 32.164062 L 29.433594 43.953125 L 26.710938 41.25 L 35.773438 32.121094 L 26.691406 22.695312 Z M 29.457031 20.039062 " fill-opacity="1" fill-rule="nonzero"/></g></g></g></svg>