<svg xmlns="http://www.w3.org/2000/svg" xmlns:xlink="http://www.w3.org/1999/xlink" width="1366" zoomAndPan="magnify" viewBox="0 0 1024.5 576" height="768" preserveAspectRatio="xMidYMid meet" version="1.0"><defs><clipPath id="a324cd8477"><path d="M 320.519531 267.21875 L 360.335938 267.21875 L 360.335938 306.558594 L 320.519531 306.558594 Z M 320.519531 267.21875 " clip-rule="nonzero"/></clipPath><clipPath id="15682a2686"><path d="M 331.675781 284.527344 C 337.789062 277.582031 335.84375 275.359375 334.734375 275.359375 C 333.621094 275.359375 331.953125 278.691406 331.121094 281.191406 C 330.007812 284.527344 328.621094 290.640625 329.175781 293.695312 C 329.730469 295.640625 330.289062 297.308594 331.953125 298.140625 C 335.84375 299.53125 351.402344 291.75 356.128906 292.585938 C 358.070312 292.863281 359.738281 294.25 360.015625 295.363281 C 360.574219 296.753906 359.460938 299.53125 358.351562 300.085938 C 357.238281 300.921875 353.070312 299.808594 352.515625 298.695312 C 351.960938 297.585938 354.183594 292.863281 355.570312 292.585938 C 356.683594 292.308594 359.460938 293.695312 360.015625 295.085938 C 360.574219 296.195312 360.015625 298.417969 358.628906 300.085938 C 356.128906 302.863281 346.679688 306.199219 340.84375 306.476562 C 335.289062 306.476562 328.34375 304.808594 325.007812 302.03125 C 322.507812 299.808594 321.394531 296.753906 320.839844 293.417969 C 320.285156 288.695312 322.230469 280.636719 324.453125 276.191406 C 325.839844 273.414062 327.785156 270.914062 330.007812 269.523438 C 331.953125 268.132812 334.453125 267.300781 336.675781 267.300781 C 338.902344 267.300781 341.957031 268.691406 343.625 270.078125 C 344.734375 271.191406 345.570312 272.300781 345.847656 274.246094 C 346.402344 276.746094 345.847656 281.75 343.902344 284.527344 C 341.957031 287.859375 336.121094 292.308594 333.34375 292.308594 C 331.953125 292.308594 330.007812 290.917969 329.453125 289.527344 C 329.175781 288.140625 331.675781 284.527344 331.675781 284.527344 " clip-rule="nonzero"/></clipPath><clipPath id="b875245c91"><path d="M 464.738281 269.757812 L 476.332031 269.757812 L 476.332031 298.148438 L 464.738281 298.148438 Z M 464.738281 269.757812 " clip-rule="nonzero"/></clipPath><clipPath id="fb4c303e55"><path d="M 473.378906 273.96875 C 475.324219 297.03125 473.101562 298.140625 471.710938 298.140625 C 470.324219 297.863281 467.820312 294.808594 468.101562 293.140625 C 468.101562 292.027344 470.324219 290.082031 471.710938 289.804688 C 472.824219 289.527344 474.492188 290.363281 475.324219 291.195312 C 476.15625 292.027344 476.433594 293.972656 476.15625 294.808594 C 475.601562 296.195312 473.378906 297.863281 472.269531 298.140625 C 471.15625 298.140625 469.765625 297.585938 468.65625 296.195312 C 466.433594 293.140625 463.933594 278.414062 465.042969 273.96875 C 465.878906 272.023438 467.542969 270.078125 468.933594 269.800781 C 470.324219 269.800781 473.378906 273.96875 473.378906 273.96875 " clip-rule="nonzero"/></clipPath><clipPath id="3073ab6166"><path d="M 521.613281 265.378906 L 535.863281 265.378906 L 535.863281 300.792969 L 521.613281 300.792969 Z M 521.613281 265.378906 " clip-rule="nonzero"/></clipPath><clipPath id="f6d76a0865"><path d="M 529.78125 275.078125 C 523.949219 269.800781 524.503906 267.300781 525.613281 266.464844 C 526.449219 265.632812 529.226562 265.078125 530.058594 265.910156 C 532.003906 267.300781 529.503906 275.078125 530.339844 279.804688 C 531.171875 285.359375 537.007812 293.695312 535.617188 297.03125 C 535.0625 298.976562 530.894531 300.921875 529.78125 300.363281 C 528.671875 299.808594 528.117188 293.972656 529.226562 293.140625 C 530.339844 292.585938 535.0625 294.53125 535.617188 295.917969 C 536.171875 296.753906 535.339844 298.695312 534.503906 299.53125 C 533.671875 300.363281 530.617188 301.199219 529.503906 300.363281 C 528.394531 299.53125 527.835938 294.25 528.949219 293.417969 C 529.78125 292.585938 534.785156 293.972656 535.617188 295.363281 C 536.171875 296.472656 534.785156 299.53125 533.671875 300.363281 C 532.5625 300.921875 529.78125 300.640625 528.394531 299.253906 C 525.335938 296.472656 522.558594 283.695312 522.003906 279.246094 C 521.726562 277.023438 521.445312 275.359375 522.28125 274.246094 C 523.113281 273.414062 526.171875 273.96875 526.449219 273.414062 C 526.726562 272.578125 524.226562 271.46875 524.226562 270.078125 C 523.949219 268.96875 525.058594 266.464844 526.171875 265.910156 C 528.117188 265.355469 534.503906 267.855469 535.339844 269.800781 C 536.171875 270.914062 535.339844 273.414062 534.503906 274.246094 C 533.394531 275.078125 529.78125 275.078125 529.78125 275.078125 " clip-rule="nonzero"/></clipPath><clipPath id="c92f92ee10"><path d="M 518.851562 272.148438 L 569.964844 272.148438 L 569.964844 289.59375 L 518.851562 289.59375 Z M 518.851562 272.148438 " clip-rule="nonzero"/></clipPath><clipPath id="f27e812179"><path d="M 518.945312 285.359375 C 523.390625 275.914062 524.78125 276.46875 527.558594 275.914062 C 534.226562 275.078125 558.679688 270.632812 565.070312 272.855469 C 567.570312 273.691406 569.238281 275.359375 569.792969 276.746094 C 570.070312 277.859375 568.960938 279.527344 568.125 280.082031 C 567.015625 280.914062 563.957031 280.914062 563.125 280.359375 C 562.011719 279.527344 561.179688 276.746094 561.734375 275.359375 C 562.011719 274.246094 563.402344 272.855469 564.511719 272.855469 C 565.902344 272.855469 569.515625 274.800781 569.515625 276.191406 C 569.792969 277.582031 568.125 279.804688 565.902344 280.914062 C 561.179688 283.695312 544.507812 284.25 537.5625 283.972656 C 533.117188 283.695312 529.503906 280.914062 527.28125 282.027344 C 525.058594 283.136719 525.058594 289.25 523.667969 289.527344 C 522.28125 289.804688 518.945312 285.359375 518.945312 285.359375 " clip-rule="nonzero"/></clipPath><clipPath id="6454f5b3c8"><path d="M 580.605469 269.726562 L 631.671875 269.726562 L 631.671875 306.371094 L 580.605469 306.371094 Z M 580.605469 269.726562 " clip-rule="nonzero"/></clipPath><clipPath id="bfd46ce502"><path d="M 603.414062 280.636719 C 593.410156 278.691406 591.742188 280.914062 590.910156 283.136719 C 589.519531 286.195312 587.851562 293.972656 589.519531 295.363281 C 591.1875 296.753906 596.464844 295.640625 599.246094 293.695312 C 602.855469 290.640625 604.246094 277.582031 607.300781 274.800781 C 608.691406 273.414062 610.359375 272.578125 611.746094 273.136719 C 615.082031 274.246094 617.582031 289.25 621.75 293.972656 C 624.527344 297.308594 630.363281 297.863281 631.476562 300.363281 C 632.03125 302.03125 630.917969 305.367188 629.808594 306.199219 C 628.417969 306.753906 624.804688 305.367188 623.972656 303.976562 C 623.417969 302.863281 624.25 300.085938 625.085938 299.253906 C 625.917969 298.417969 627.863281 297.863281 628.972656 298.417969 C 630.085938 298.976562 631.753906 303.699219 631.195312 304.808594 C 630.363281 305.921875 628.140625 306.476562 626.195312 306.199219 C 623.417969 305.921875 618.695312 304.253906 615.914062 300.921875 C 611.46875 296.195312 605.636719 281.191406 606.746094 276.746094 C 607.023438 274.523438 609.246094 273.136719 610.636719 272.855469 C 612.027344 272.855469 613.96875 274.246094 614.527344 275.636719 C 615.359375 276.746094 615.082031 278.414062 614.527344 280.359375 C 613.96875 283.972656 610.914062 290.917969 608.414062 294.53125 C 606.191406 297.585938 603.96875 300.085938 600.910156 301.753906 C 597.300781 303.976562 590.351562 306.476562 587.019531 305.085938 C 584.242188 303.699219 582.019531 298.976562 581.183594 295.363281 C 580.351562 290.917969 580.90625 284.25 583.128906 279.804688 C 585.351562 275.636719 590.074219 270.914062 594.519531 270.078125 C 598.6875 268.96875 606.746094 272.023438 608.414062 274.523438 C 609.523438 275.636719 609.523438 278.136719 608.691406 279.246094 C 607.859375 280.359375 603.414062 280.636719 603.414062 280.636719 " clip-rule="nonzero"/></clipPath><clipPath id="b620561369"><path d="M 663.578125 272.730469 L 709.613281 272.730469 L 709.613281 334.984375 L 663.578125 334.984375 Z M 663.578125 272.730469 " clip-rule="nonzero"/></clipPath><clipPath id="45207eed0c"><path d="M 696.214844 288.972656 C 683.710938 280.636719 680.097656 280.082031 678.710938 281.191406 C 677.320312 282.304688 676.207031 287.027344 677.320312 288.140625 C 678.429688 289.527344 683.710938 289.25 687.042969 287.859375 C 691.769531 285.917969 698.4375 273.691406 702.328125 272.855469 C 704.269531 272.578125 707.050781 273.96875 707.328125 275.078125 C 707.882812 276.46875 703.714844 279.527344 703.992188 281.191406 C 704.269531 282.304688 707.328125 282.027344 708.160156 283.695312 C 710.105469 287.027344 709.550781 297.585938 708.4375 304.808594 C 706.773438 312.589844 703.4375 323.425781 699.269531 328.148438 C 696.492188 331.484375 693.15625 332.871094 689.265625 333.984375 C 684.542969 335.09375 676.207031 335.375 672.039062 332.871094 C 668.152344 330.925781 663.707031 325.648438 663.707031 321.757812 C 663.425781 317.867188 668.152344 310.921875 670.929688 310.089844 C 672.875 309.535156 677.042969 311.757812 677.042969 313.144531 C 677.320312 314.257812 673.429688 318.148438 672.039062 317.867188 C 670.929688 317.3125 668.984375 312.589844 669.539062 311.199219 C 670.097656 310.089844 673.152344 309.535156 674.542969 309.8125 C 675.652344 310.089844 677.042969 311.476562 677.042969 312.589844 C 677.320312 314.535156 671.484375 318.703125 671.761719 321.203125 C 671.761719 322.59375 673.152344 324.257812 674.820312 325.09375 C 678.152344 326.480469 687.878906 326.761719 692.046875 323.703125 C 696.769531 320.648438 698.714844 311.476562 700.105469 304.808594 C 701.492188 297.863281 698.714844 287.859375 699.824219 282.027344 C 700.382812 278.136719 701.492188 273.136719 703.160156 272.855469 C 704.550781 272.578125 707.605469 275.078125 707.882812 277.023438 C 707.882812 281.191406 693.992188 293.140625 688.710938 296.195312 C 685.933594 297.585938 683.433594 297.863281 681.210938 297.585938 C 678.710938 297.585938 675.929688 297.03125 673.984375 295.640625 C 671.761719 293.972656 669.539062 290.917969 668.984375 288.140625 C 668.429688 284.527344 670.097656 277.582031 672.320312 275.078125 C 673.984375 273.414062 676.207031 272.855469 678.988281 272.855469 C 682.320312 272.578125 687.878906 273.414062 691.769531 275.359375 C 695.9375 277.304688 701.769531 281.75 702.605469 284.25 C 702.882812 285.917969 702.046875 288.140625 700.9375 288.695312 C 699.824219 289.527344 696.214844 288.972656 696.214844 288.972656 " clip-rule="nonzero"/></clipPath><clipPath id="1edab01578"><path d="M 239.347656 241.707031 L 292.523438 241.707031 L 292.523438 301 L 239.347656 301 Z M 239.347656 241.707031 " clip-rule="nonzero"/></clipPath><clipPath id="56657986ac"><path d="M 245.542969 251.464844 C 241.929688 244.792969 243.875 242.292969 245.265625 242.015625 C 246.375 241.460938 248.042969 242.015625 248.878906 243.128906 C 250.265625 244.515625 249.710938 247.296875 249.988281 250.90625 C 250.542969 259.242188 246.65625 290.640625 249.988281 291.75 C 252.210938 292.585938 257.214844 280.359375 261.660156 276.746094 C 265.546875 273.414062 270.828125 270.632812 274.441406 270.355469 C 276.941406 270.078125 278.605469 270.632812 280.832031 272.300781 C 284.71875 275.914062 292.5 290.917969 292.222656 295.640625 C 292.222656 298.140625 290.277344 300.363281 288.886719 300.921875 C 287.777344 301.199219 284.996094 299.808594 284.441406 298.417969 C 283.886719 297.03125 285.277344 293.140625 286.664062 292.863281 C 288.054688 292.308594 292.5 295.363281 292.5 296.753906 C 292.5 297.863281 288.886719 300.921875 286.664062 300.640625 C 282.773438 299.808594 278.605469 280.359375 273.050781 279.527344 C 267.492188 278.691406 259.15625 293.972656 253.324219 295.917969 C 249.710938 297.308594 246.097656 298.140625 243.597656 295.640625 C 238.320312 290.640625 238.320312 252.019531 241.929688 245.351562 C 243.042969 242.851562 245.542969 241.738281 247.210938 242.015625 C 249.15625 242.292969 252.488281 246.460938 252.765625 248.40625 C 252.765625 249.796875 251.378906 251.742188 250.265625 252.296875 C 249.15625 252.851562 245.542969 251.464844 245.542969 251.464844 " clip-rule="nonzero"/></clipPath><clipPath id="bc79e4cf24"><path d="M 391.132812 263.683594 L 445.101562 263.683594 L 445.101562 303.5 L 391.132812 303.5 Z M 391.132812 263.683594 " clip-rule="nonzero"/></clipPath><clipPath id="6a343215b3"><path d="M 398.636719 278.136719 C 401.972656 301.753906 400.027344 303.421875 398.636719 303.421875 C 397.25 303.421875 394.746094 301.199219 394.46875 299.808594 C 393.914062 298.140625 395.582031 296.472656 396.414062 294.25 C 398.359375 289.804688 401.417969 279.804688 404.75 275.359375 C 406.972656 272.300781 408.917969 270.914062 412.808594 269.246094 C 419.199219 266.464844 436.703125 262.300781 441.703125 264.242188 C 443.648438 265.078125 445.316406 267.855469 445.039062 269.246094 C 445.039062 270.355469 442.539062 272.578125 441.425781 272.578125 C 440.039062 272.578125 436.980469 269.800781 436.980469 268.410156 C 436.703125 267.023438 439.757812 264.242188 441.148438 264.242188 C 442.539062 264.242188 445.039062 267.300781 445.039062 268.691406 C 445.039062 270.078125 443.648438 271.46875 441.703125 272.578125 C 436.980469 275.359375 419.199219 273.691406 412.253906 278.96875 C 405.585938 284.25 403.359375 301.753906 399.472656 303.144531 C 398.082031 303.976562 396.414062 302.863281 395.027344 301.476562 C 393.082031 299.53125 392.246094 294.25 391.691406 289.804688 C 391.136719 284.804688 390.859375 276.746094 392.523438 273.414062 C 393.359375 271.46875 395.304688 270.355469 396.972656 269.800781 C 398.359375 269.523438 400.304688 270.078125 401.417969 270.914062 C 402.25 271.746094 402.804688 274.246094 402.527344 275.636719 C 401.972656 276.746094 398.636719 278.136719 398.636719 278.136719 " clip-rule="nonzero"/></clipPath><clipPath id="a9604e3428"><path d="M 466.144531 250.925781 L 482 250.925781 L 482 261.25 L 466.144531 261.25 Z M 466.144531 250.925781 " clip-rule="nonzero"/></clipPath><clipPath id="b3b9186115"><path d="M 473.101562 260.910156 C 465.597656 255.351562 465.597656 252.296875 466.988281 251.464844 C 468.933594 250.074219 478.101562 251.742188 480.324219 253.6875 C 481.714844 254.796875 482.269531 257.296875 481.714844 258.6875 C 481.160156 259.796875 478.660156 261.464844 477.269531 261.1875 C 475.878906 260.910156 473.65625 256.464844 474.210938 255.074219 C 474.492188 253.964844 478.660156 252.851562 480.046875 253.40625 C 481.160156 253.964844 482.269531 257.019531 481.714844 258.132812 C 481.4375 259.519531 478.660156 260.910156 476.433594 261.1875 C 473.933594 261.1875 468.378906 259.519531 466.988281 257.574219 C 465.878906 256.1875 465.878906 252.296875 466.988281 251.464844 C 468.378906 250.074219 476.992188 252.574219 478.378906 254.519531 C 479.214844 255.910156 478.660156 259.242188 477.824219 260.078125 C 476.992188 261.1875 473.101562 260.910156 473.101562 260.910156 " clip-rule="nonzero"/></clipPath><clipPath id="1420ed3183"><path d="M 725.542969 261.34375 L 781.878906 261.34375 L 781.878906 298.441406 L 725.542969 298.441406 Z M 725.542969 261.34375 " clip-rule="nonzero"/></clipPath><clipPath id="b9eb1b1b69"><path d="M 727.332031 276.191406 C 749.003906 262.019531 750.949219 265.078125 750.671875 266.746094 C 750.117188 268.96875 741.78125 269.523438 739.558594 272.300781 C 737.335938 275.078125 736.5 280.082031 736.78125 282.582031 C 737.335938 284.527344 738.445312 285.917969 740.113281 287.027344 C 743.171875 288.695312 749.003906 290.363281 754.285156 289.527344 C 761.230469 288.140625 773.457031 274.800781 777.902344 275.636719 C 779.847656 275.914062 781.792969 278.691406 781.792969 280.082031 C 781.792969 281.46875 779.847656 283.695312 778.457031 283.695312 C 777.066406 283.972656 773.457031 280.082031 773.734375 278.96875 C 774.011719 277.582031 778.734375 275.636719 780.125 276.191406 C 781.234375 276.746094 782.070312 280.082031 781.234375 282.304688 C 779.289062 286.75 765.675781 295.917969 758.175781 297.863281 C 752.339844 299.253906 745.671875 297.585938 740.949219 295.917969 C 737.335938 294.808594 734.558594 293.140625 732.613281 290.640625 C 730.390625 288.417969 728.722656 285.359375 728.722656 282.027344 C 728.445312 277.582031 730.945312 270.078125 733.167969 266.746094 C 735.113281 263.964844 738.167969 261.1875 739.835938 261.464844 C 740.949219 261.464844 741.226562 264.523438 742.613281 265.078125 C 744.003906 265.355469 747.617188 261.742188 748.726562 262.300781 C 750.117188 262.855469 750.949219 265.910156 750.394531 267.855469 C 749.839844 270.632812 745.949219 273.96875 742.613281 276.46875 C 739.003906 279.527344 732.054688 284.25 729 283.972656 C 727.332031 283.695312 725.945312 282.027344 725.664062 280.636719 C 725.386719 279.527344 727.332031 276.191406 727.332031 276.191406 " clip-rule="nonzero"/></clipPath></defs><g clip-path="url(#a324cd8477)"><g clip-path="url(#15682a2686)"><path fill="#c33c09" d="M 309.726562 256.1875 L 371.371094 256.1875 L 371.371094 317.589844 L 309.726562 317.589844 Z M 309.726562 256.1875 " fill-opacity="1" fill-rule="nonzero"/></g></g><g clip-path="url(#b875245c91)"><g clip-path="url(#fb4c303e55)"><path fill="#c33c09" d="M 453.929688 258.6875 L 487.273438 258.6875 L 487.273438 309.21875 L 453.929688 309.21875 Z M 453.929688 258.6875 " fill-opacity="1" fill-rule="nonzero"/></g></g><g clip-path="url(#3073ab6166)"><g clip-path="url(#f6d76a0865)"><path fill="#c33c09" d="M 510.890625 254.796875 L 547.007812 254.796875 L 547.007812 311.800781 L 510.890625 311.800781 Z M 510.890625 254.796875 " fill-opacity="1" fill-rule="nonzero"/></g></g><g clip-path="url(#c92f92ee10)"><g clip-path="url(#f27e812179)"><path fill="#c33c09" d="M 507.832031 261.742188 L 580.984375 261.742188 L 580.984375 300.921875 L 507.832031 300.921875 Z M 507.832031 261.742188 " fill-opacity="1" fill-rule="nonzero"/></g></g><g clip-path="url(#6454f5b3c8)"><g clip-path="url(#bfd46ce502)"><path fill="#c33c09" d="M 570.070312 258.964844 L 642.664062 258.964844 L 642.664062 317.589844 L 570.070312 317.589844 Z M 570.070312 258.964844 " fill-opacity="1" fill-rule="nonzero"/></g></g><g clip-path="url(#b620561369)"><g clip-path="url(#45207eed0c)"><path fill="#c33c09" d="M 652.589844 261.742188 L 719.554688 261.742188 L 719.554688 345.183594 L 652.589844 345.183594 Z M 652.589844 261.742188 " fill-opacity="1" fill-rule="nonzero"/></g></g><g clip-path="url(#1edab01578)"><g clip-path="url(#56657986ac)"><path fill="#c33c09" d="M 230.816406 230.902344 L 303.613281 230.902344 L 303.613281 312.230469 L 230.816406 312.230469 Z M 230.816406 230.902344 " fill-opacity="1" fill-rule="nonzero"/></g></g><g clip-path="url(#bc79e4cf24)"><g clip-path="url(#6a343215b3)"><path fill="#c33c09" d="M 380.578125 253.128906 L 456.375 253.128906 L 456.375 314.535156 L 380.578125 314.535156 Z M 380.578125 253.128906 " fill-opacity="1" fill-rule="nonzero"/></g></g><g clip-path="url(#a9604e3428)"><g clip-path="url(#b3b9186115)"><path fill="#c33c09" d="M 455.320312 240.347656 L 493.089844 240.347656 L 493.089844 272.578125 L 455.320312 272.578125 Z M 455.320312 240.347656 " fill-opacity="1" fill-rule="nonzero"/></g></g><g clip-path="url(#1420ed3183)"><g clip-path="url(#b9eb1b1b69)"><path fill="#c33c09" d="M 714.550781 250.351562 L 793.101562 250.351562 L 793.101562 308.976562 L 714.550781 308.976562 Z M 714.550781 250.351562 " fill-opacity="1" fill-rule="nonzero"/></g></g></svg>