<svg xmlns="http://www.w3.org/2000/svg" xmlns:xlink="http://www.w3.org/1999/xlink" width="1366" zoomAndPan="magnify" viewBox="0 0 1024.5 576" height="768" preserveAspectRatio="xMidYMid meet" version="1.0"><defs><clipPath id="c69394c8a4"><path d="M 572.378906 226.421875 L 590.867188 226.421875 L 590.867188 242.015625 L 572.378906 242.015625 Z M 572.378906 226.421875 " clip-rule="nonzero"/></clipPath><clipPath id="e6a509c05a"><path d="M 579.453125 240.730469 C 571.734375 230.761719 572.699219 228.1875 573.984375 227.222656 C 574.949219 226.582031 576.558594 226.257812 578.164062 226.582031 C 581.382812 227.222656 588.457031 231.40625 590.0625 234.296875 C 591.027344 235.90625 591.027344 238.800781 590.0625 240.085938 C 589.097656 241.375 585.882812 242.335938 584.597656 241.695312 C 582.988281 241.050781 581.058594 236.550781 581.703125 235.261719 C 582.667969 233.976562 588.132812 232.691406 589.742188 233.65625 C 590.707031 234.621094 591.027344 238.15625 590.386719 239.445312 C 589.742188 241.050781 587.167969 242.015625 584.917969 242.015625 C 581.703125 241.695312 573.984375 236.550781 572.699219 233.65625 C 572.054688 231.726562 572.699219 228.511719 573.984375 227.222656 C 574.949219 226.257812 577.523438 226.257812 579.453125 226.902344 C 582.023438 228.1875 587.167969 233.011719 587.492188 235.90625 C 587.8125 237.835938 586.203125 240.730469 584.917969 241.695312 C 583.632812 242.335938 579.453125 240.730469 579.453125 240.730469 " clip-rule="nonzero"/></clipPath><clipPath id="23fdf57dbe"><path d="M 291.007812 256.570312 L 330.394531 256.570312 L 330.394531 321.960938 L 291.007812 321.960938 Z M 291.007812 256.570312 " clip-rule="nonzero"/></clipPath><clipPath id="2fae83dd30"><path d="M 316.328125 269.027344 C 304.429688 267.097656 299.929688 272.886719 300.570312 273.851562 C 301.214844 274.816406 308.609375 272.886719 312.148438 270.636719 C 316.328125 268.0625 319.542969 258.738281 323.082031 257.773438 C 325.011719 257.128906 327.582031 257.773438 329.191406 259.703125 C 333.050781 265.167969 325.652344 297.324219 326.941406 307.292969 C 327.582031 311.796875 330.796875 314.691406 329.832031 317.261719 C 329.191406 319.511719 325.011719 321.765625 323.402344 321.441406 C 321.792969 321.121094 320.1875 318.546875 320.1875 316.941406 C 320.507812 315.332031 323.082031 312.4375 324.6875 312.4375 C 326.296875 312.117188 329.511719 315.011719 329.832031 316.621094 C 330.15625 317.90625 329.191406 320.15625 328.226562 320.800781 C 326.941406 321.765625 323.402344 322.085938 322.4375 321.121094 C 321.152344 319.835938 321.152344 314.046875 322.4375 313.082031 C 323.722656 312.117188 328.546875 313.402344 329.511719 314.691406 C 330.15625 316.296875 326.941406 321.441406 327.261719 321.441406 C 327.582031 321.441406 329.832031 317.261719 329.832031 317.261719 C 330.15625 317.261719 328.867188 320.476562 327.582031 321.121094 C 326.296875 321.765625 323.722656 322.085938 322.117188 321.121094 C 319.863281 319.191406 318.257812 313.082031 317.292969 306.972656 C 315.683594 296.039062 317.292969 268.0625 320.1875 261.308594 C 321.472656 259.058594 322.757812 257.773438 324.046875 257.453125 C 325.652344 257.128906 328.226562 258.09375 329.191406 259.703125 C 330.15625 261.308594 329.511719 265.492188 327.902344 268.382812 C 325.652344 272.566406 319.222656 278.351562 313.753906 280.28125 C 308.609375 282.210938 300.894531 282.535156 297.035156 280.28125 C 293.820312 278.675781 291.566406 273.851562 291.246094 270.957031 C 290.925781 268.0625 292.53125 264.847656 294.460938 262.597656 C 297.035156 260.023438 301.859375 257.128906 306.039062 256.808594 C 311.183594 256.164062 320.507812 259.058594 322.4375 261.953125 C 323.722656 263.5625 323.402344 266.132812 322.757812 267.417969 C 321.792969 268.707031 316.328125 269.027344 316.328125 269.027344 " clip-rule="nonzero"/></clipPath><clipPath id="cdcaa68377"><path d="M 366 261.152344 L 418 261.152344 L 418 295.496094 L 366 295.496094 Z M 366 261.152344 " clip-rule="nonzero"/></clipPath><clipPath id="e31be82ba2"><path d="M 370.992188 271.277344 C 368.742188 262.597656 374.210938 261.308594 375.816406 262.597656 C 377.746094 264.203125 374.53125 272.566406 375.816406 276.421875 C 377.105469 279.960938 379.996094 285.75 382.570312 285.75 C 386.75 285.75 392.859375 266.777344 397.363281 264.527344 C 399.613281 263.5625 401.542969 263.882812 403.792969 264.847656 C 407.972656 267.097656 417.621094 278.03125 417.941406 282.535156 C 418.265625 285.105469 415.046875 289.285156 413.761719 289.285156 C 412.152344 289.285156 408.617188 284.460938 408.9375 282.855469 C 409.261719 281.246094 412.476562 279.640625 414.082031 279.640625 C 415.371094 279.640625 417.300781 280.605469 417.621094 281.890625 C 418.265625 283.5 416.335938 288.644531 414.082031 289.285156 C 411.511719 289.929688 404.4375 283.820312 401.222656 279.960938 C 398.328125 276.421875 394.789062 270.3125 395.753906 267.417969 C 396.398438 265.492188 400.257812 263.5625 401.863281 263.882812 C 403.152344 263.882812 404.757812 266.132812 405.078125 268.0625 C 405.722656 270.3125 404.4375 273.851562 402.507812 277.066406 C 400.257812 281.570312 394.789062 287.679688 390.609375 290.574219 C 387.714844 293.144531 384.5 295.394531 381.605469 295.394531 C 378.390625 295.074219 374.53125 291.859375 372.28125 288.644531 C 369.386719 285.105469 366.492188 278.996094 366.171875 274.496094 C 365.847656 270.3125 367.457031 264.203125 369.386719 262.273438 C 370.671875 261.308594 372.28125 260.988281 373.886719 261.632812 C 375.496094 261.953125 378.390625 264.527344 379.03125 266.457031 C 379.355469 268.382812 377.746094 271.601562 376.140625 272.242188 C 374.851562 273.207031 370.992188 271.277344 370.992188 271.277344 " clip-rule="nonzero"/></clipPath><clipPath id="861627a3ea"><path d="M 449.429688 260 L 520 260 L 520 295.523438 L 449.429688 295.523438 Z M 449.429688 260 " clip-rule="nonzero"/></clipPath><clipPath id="14fecae1d9"><path d="M 472.285156 274.816406 C 460.710938 269.992188 459.425781 271.921875 458.78125 273.851562 C 458.136719 276.421875 458.460938 282.535156 460.066406 284.460938 C 461.03125 285.75 462.960938 286.070312 465.210938 285.75 C 470.359375 284.785156 483.863281 268.707031 490.292969 269.992188 C 495.117188 270.636719 496.402344 282.535156 501.226562 285.105469 C 506.050781 287.355469 516.664062 282.210938 518.59375 284.140625 C 519.878906 285.75 518.269531 291.539062 516.984375 292.179688 C 515.699219 292.5 510.554688 289.285156 510.230469 287.679688 C 510.230469 286.070312 513.769531 282.855469 515.375 282.855469 C 516.664062 282.855469 519.558594 285.105469 519.878906 286.390625 C 520.199219 288 519.234375 290.574219 517.304688 291.859375 C 514.089844 294.109375 501.226562 294.753906 496.402344 293.464844 C 493.511719 292.5 491.582031 290.894531 489.972656 288.644531 C 488.363281 285.425781 486.757812 276.421875 487.398438 276.101562 C 487.722656 275.78125 490.617188 278.351562 490.617188 279.640625 C 490.292969 281.890625 485.792969 285.425781 481.933594 287.679688 C 477.433594 290.894531 469.394531 295.074219 464.246094 295.394531 C 460.390625 295.394531 456.53125 293.789062 453.957031 291.859375 C 452.027344 290.574219 451.0625 288.644531 450.421875 286.070312 C 449.132812 281.890625 449.132812 273.207031 450.421875 269.027344 C 451.386719 266.132812 452.992188 264.203125 455.242188 262.597656 C 458.460938 260.667969 464.890625 259.378906 469.070312 260.667969 C 473.25 261.632812 479.359375 266.777344 480.324219 269.671875 C 480.96875 271.601562 480.003906 274.171875 478.71875 275.136719 C 477.433594 276.101562 472.285156 274.816406 472.285156 274.816406 " clip-rule="nonzero"/></clipPath><clipPath id="4376ed5ff6"><path d="M 531.675781 247.140625 L 552.839844 247.140625 L 552.839844 305.746094 L 531.675781 305.746094 Z M 531.675781 247.140625 " clip-rule="nonzero"/></clipPath><clipPath id="6887a7fb89"><path d="M 534.671875 258.417969 C 533.382812 248.769531 539.492188 250.054688 539.492188 249.734375 C 539.492188 249.414062 534.347656 248.769531 534.347656 248.449219 C 534.347656 247.804688 535.957031 247.160156 536.921875 247.160156 C 538.207031 247.160156 540.457031 247.484375 541.746094 249.414062 C 545.28125 254.234375 543.351562 276.421875 545.925781 285.425781 C 547.53125 291.859375 553 296.683594 552.679688 300.21875 C 552.355469 302.46875 551.070312 304.722656 549.460938 305.363281 C 548.175781 305.6875 544.640625 304.722656 543.996094 303.433594 C 543.03125 302.148438 543.996094 297.324219 545.28125 296.683594 C 546.566406 296.039062 552.035156 298.289062 552.679688 299.898438 C 553 301.183594 551.390625 304.078125 550.105469 305.042969 C 548.820312 305.6875 546.890625 306.007812 545.605469 305.042969 C 542.386719 302.792969 538.207031 293.144531 536.277344 286.070312 C 533.707031 277.386719 532.742188 262.597656 533.0625 255.84375 C 533.382812 252.304688 533.382812 249.089844 534.671875 248.125 C 536.277344 247.160156 541.101562 248.125 541.746094 249.414062 C 542.710938 250.699219 541.421875 254.878906 540.136719 256.164062 C 538.527344 257.128906 534.027344 257.453125 532.742188 256.488281 C 531.453125 255.199219 531.453125 251.339844 532.417969 250.054688 C 533.0625 248.769531 535.957031 248.125 537.5625 248.449219 C 539.492188 248.769531 542.066406 251.664062 542.710938 253.59375 C 543.03125 255.199219 542.066406 257.773438 541.101562 258.738281 C 539.816406 259.703125 534.671875 258.417969 534.671875 258.417969 " clip-rule="nonzero"/></clipPath><clipPath id="7d6ad1ef42"><path d="M 574.320312 264.484375 L 592 264.484375 L 592 302.164062 L 574.320312 302.164062 Z M 574.320312 264.484375 " clip-rule="nonzero"/></clipPath><clipPath id="1b2d2cee41"><path d="M 575.832031 274.496094 C 578.402344 263.882812 582.582031 263.882812 584.191406 265.167969 C 586.765625 267.742188 583.546875 279.960938 585.15625 285.75 C 586.765625 290.25 591.910156 294.429688 591.910156 297.324219 C 591.910156 298.933594 591.265625 300.539062 589.980469 301.183594 C 588.691406 302.148438 585.15625 302.46875 584.191406 301.183594 C 582.90625 299.898438 583.546875 294.429688 584.511719 293.144531 C 585.476562 292.5 588.050781 292.5 589.335938 293.144531 C 590.621094 293.789062 592.230469 297.003906 591.910156 298.289062 C 591.265625 299.898438 586.765625 302.148438 584.511719 301.503906 C 581.296875 300.539062 577.4375 292.179688 575.832031 286.714844 C 574.222656 280.605469 573.578125 269.027344 576.152344 266.132812 C 578.082031 264.527344 582.582031 263.882812 584.191406 265.167969 C 586.121094 266.777344 585.800781 275.78125 584.191406 277.710938 C 583.226562 278.996094 580.332031 279.640625 578.726562 278.996094 C 577.4375 278.351562 575.832031 274.496094 575.832031 274.496094 " clip-rule="nonzero"/></clipPath><clipPath id="d277a552dd"><path d="M 627.894531 263.359375 L 641 263.359375 L 641 302.25 L 627.894531 302.25 Z M 627.894531 263.359375 " clip-rule="nonzero"/></clipPath><clipPath id="e58936320d"><path d="M 639.820312 271.277344 C 638.214844 291.539062 641.75 296.039062 640.785156 298.613281 C 640.464844 300.539062 637.894531 302.46875 636.285156 302.148438 C 634.675781 302.148438 631.140625 298.613281 631.460938 297.324219 C 631.78125 295.71875 636.929688 292.5 638.214844 293.144531 C 639.5 293.789062 640.785156 299.578125 639.5 300.863281 C 638.535156 302.148438 634.355469 301.828125 632.746094 300.539062 C 630.175781 298.613281 628.566406 292.5 628.246094 287.355469 C 627.601562 281.570312 627.925781 270.636719 630.816406 266.777344 C 632.425781 264.527344 636.605469 262.917969 638.214844 263.5625 C 639.820312 264.203125 639.820312 271.277344 639.820312 271.277344 " clip-rule="nonzero"/></clipPath><clipPath id="e193dc75a8"><path d="M 618.183594 269.574219 L 673.960938 269.574219 L 673.960938 284 L 618.183594 284 Z M 618.183594 269.574219 " clip-rule="nonzero"/></clipPath><clipPath id="a8acf9093e"><path d="M 623.101562 272.886719 C 672.300781 270.636719 673.585938 272.566406 673.90625 273.851562 C 673.90625 275.457031 671.015625 279.316406 669.40625 279.316406 C 667.796875 279.316406 664.261719 276.101562 664.261719 274.496094 C 664.261719 272.886719 667.476562 269.671875 669.085938 269.671875 C 670.691406 269.671875 673.90625 273.207031 673.90625 275.136719 C 673.90625 276.421875 672.300781 278.03125 669.726562 279.316406 C 662.976562 282.535156 630.496094 285.75 623.101562 282.535156 C 620.207031 281.570312 618.277344 278.996094 618.277344 277.066406 C 618.597656 275.78125 623.101562 272.886719 623.101562 272.886719 " clip-rule="nonzero"/></clipPath><clipPath id="0ff79b797c"><path d="M 661 260.488281 L 733.140625 260.488281 L 733.140625 350.476562 L 661 350.476562 Z M 661 260.488281 " clip-rule="nonzero"/></clipPath><clipPath id="2fa430ebad"><path d="M 690.308594 271.277344 C 693.84375 279.640625 697.703125 282.535156 700.277344 283.175781 C 702.527344 283.5 704.457031 282.855469 706.386719 281.246094 C 710.246094 278.03125 714.105469 263.5625 717.960938 261.632812 C 719.890625 260.34375 722.464844 260.667969 724.394531 262.273438 C 728.253906 265.492188 729.539062 281.570312 731.148438 291.859375 C 732.433594 302.792969 733.71875 317.261719 732.753906 325.945312 C 732.109375 331.734375 731.148438 336.234375 728.574219 340.09375 C 725.679688 343.628906 721.5 346.847656 716.03125 348.777344 C 709.28125 351.027344 698.347656 350.707031 689.664062 349.417969 C 680.339844 347.8125 663.617188 343.628906 661.6875 339.449219 C 660.722656 337.199219 662.976562 332.699219 664.582031 332.054688 C 665.867188 331.410156 669.085938 333.019531 670.050781 334.304688 C 670.691406 335.589844 671.015625 337.84375 670.050781 338.808594 C 668.761719 340.09375 663.296875 341.058594 662.011719 339.773438 C 661.046875 339.128906 661.046875 335.269531 661.6875 333.984375 C 662.332031 333.019531 663.617188 332.054688 665.546875 332.054688 C 671.65625 331.089844 691.59375 341.703125 701.5625 341.378906 C 708.636719 341.058594 716.355469 340.09375 719.890625 335.589844 C 724.070312 330.445312 723.105469 320.15625 722.785156 310.832031 C 722.785156 298.289062 716.03125 276.101562 716.355469 268.0625 C 716.675781 264.847656 716.675781 262.597656 717.960938 261.632812 C 719.25 260.667969 724.070312 261.308594 725.035156 262.917969 C 726.324219 265.492188 723.105469 272.566406 720.535156 276.746094 C 717.960938 281.570312 713.78125 287.679688 709.921875 290.25 C 707.351562 291.859375 704.457031 292.5 701.5625 292.179688 C 697.703125 291.539062 692.878906 289.285156 689.664062 286.390625 C 685.804688 282.855469 680.019531 274.816406 680.660156 271.277344 C 680.980469 269.027344 684.199219 266.457031 685.804688 266.457031 C 687.414062 266.457031 690.308594 271.277344 690.308594 271.277344 " clip-rule="nonzero"/></clipPath></defs><g clip-path="url(#c69394c8a4)"><g clip-path="url(#e6a509c05a)"><path fill="#c33c09" d="M 559.515625 213.71875 L 603.570312 213.71875 L 603.570312 254.878906 L 559.515625 254.878906 Z M 559.515625 213.71875 " fill-opacity="1" fill-rule="nonzero"/></g></g><g clip-path="url(#23fdf57dbe)"><g clip-path="url(#2fae83dd30)"><path fill="#c33c09" d="M 278.382812 243.945312 L 343.019531 243.945312 L 343.019531 334.585938 L 278.382812 334.585938 Z M 278.382812 243.945312 " fill-opacity="1" fill-rule="nonzero"/></g></g><g clip-path="url(#cdcaa68377)"><g clip-path="url(#e31be82ba2)"><path fill="#c33c09" d="M 353.308594 248.769531 L 430.875 248.769531 L 430.875 308.582031 L 353.308594 308.582031 Z M 353.308594 248.769531 " fill-opacity="1" fill-rule="nonzero"/></g></g><g clip-path="url(#861627a3ea)"><g clip-path="url(#14fecae1d9)"><path fill="#c33c09" d="M 437.558594 247.804688 L 532.996094 247.804688 L 532.996094 308.582031 L 437.558594 308.582031 Z M 437.558594 247.804688 " fill-opacity="1" fill-rule="nonzero"/></g></g><g clip-path="url(#4376ed5ff6)"><g clip-path="url(#6887a7fb89)"><path fill="#c33c09" d="M 519.558594 234.296875 L 565.863281 234.296875 L 565.863281 318.226562 L 519.558594 318.226562 Z M 519.558594 234.296875 " fill-opacity="1" fill-rule="nonzero"/></g></g><g clip-path="url(#7d6ad1ef42)"><g clip-path="url(#1b2d2cee41)"><path fill="#c33c09" d="M 562.96875 252.304688 L 605.09375 252.304688 L 605.09375 314.34375 L 562.96875 314.34375 Z M 562.96875 252.304688 " fill-opacity="1" fill-rule="nonzero"/></g></g><g clip-path="url(#d277a552dd)"><g clip-path="url(#e58936320d)"><path fill="#c33c09" d="M 615.382812 250.699219 L 653.972656 250.699219 L 653.972656 315.363281 L 615.382812 315.363281 Z M 615.382812 250.699219 " fill-opacity="1" fill-rule="nonzero"/></g></g><g clip-path="url(#e193dc75a8)"><g clip-path="url(#a8acf9093e)"><path fill="#c33c09" d="M 605.414062 256.808594 L 686.730469 256.808594 L 686.730469 295.71875 L 605.414062 295.71875 Z M 605.414062 256.808594 " fill-opacity="1" fill-rule="nonzero"/></g></g><g clip-path="url(#0ff79b797c)"><g clip-path="url(#2fa430ebad)"><path fill="#c33c09" d="M 648.824219 248.769531 L 745.617188 248.769531 L 745.617188 362.195312 L 648.824219 362.195312 Z M 648.824219 248.769531 " fill-opacity="1" fill-rule="nonzero"/></g></g></svg>