<svg xmlns="http://www.w3.org/2000/svg" xmlns:xlink="http://www.w3.org/1999/xlink" width="1366" zoomAndPan="magnify" viewBox="0 0 1024.5 576" height="768" preserveAspectRatio="xMidYMid meet" version="1.0"><defs><g/></defs><g fill="#c33c09" fill-opacity="1"><g transform="translate(308.923341, 260.263546)"><g><path d="M 215.84375 -104.609375 C 215.84375 -90.710938 205.878906 -75.710938 185.953125 -59.609375 C 172.160156 -48.597656 152.054688 -36.144531 125.640625 -22.25 C 131.546875 -18.882812 139.421875 -14.1875 149.265625 -8.15625 C 159.117188 -2.132812 171.285156 5.21875 185.765625 13.90625 C 189.242188 16.332031 196.195312 19.578125 206.625 23.640625 C 206.625 25.140625 206.507812 25.945312 206.28125 26.0625 C 206.164062 26.0625 204.773438 26.179688 202.109375 26.421875 C 191.566406 26.421875 161.789062 11.878906 112.78125 -17.203125 C 110.46875 -15.929688 107.3125 -14.484375 103.3125 -12.859375 C 99.3125 -11.234375 94.300781 -9.378906 88.28125 -7.296875 C 81.332031 -4.984375 75.019531 -3.160156 69.34375 -1.828125 C 63.664062 -0.492188 58.394531 0.460938 53.53125 1.046875 C 48.65625 7.535156 43.550781 13.960938 38.21875 20.328125 C 32.894531 26.703125 27.109375 33.363281 20.859375 40.3125 C 2.546875 60.59375 -10.023438 70.847656 -16.859375 71.078125 C -18.710938 71.078125 -19.640625 69.515625 -19.640625 66.390625 C -19.640625 65.222656 -18.941406 64.003906 -17.546875 62.734375 C -16.046875 61.578125 -14.832031 60.941406 -13.90625 60.828125 C -13.09375 60.828125 -12.164062 61.054688 -11.125 61.515625 C -10.65625 61.742188 -10.25 61.859375 -9.90625 61.859375 C -9.5625 61.859375 -9.269531 61.859375 -9.03125 61.859375 C 9.726562 47.492188 28.726562 27.394531 47.96875 1.5625 C 36.84375 1.5625 26.296875 -2.023438 16.328125 -9.203125 C 6.828125 -16.046875 2.019531 -23.867188 1.90625 -32.671875 C 1.90625 -41.242188 5.554688 -48.660156 12.859375 -54.921875 C 16.566406 -58.046875 20.617188 -60.359375 25.015625 -61.859375 C 29.421875 -63.367188 34.234375 -64.179688 39.453125 -64.296875 C 53.234375 -64.296875 68.582031 -59.195312 85.5 -49 C 123.269531 -99.976562 157.390625 -125.640625 187.859375 -125.984375 C 191.910156 -125.984375 195.53125 -125.429688 198.71875 -124.328125 C 201.90625 -123.234375 204.945312 -121.703125 207.84375 -119.734375 C 213.050781 -115.679688 215.71875 -110.640625 215.84375 -104.609375 Z M 206.625 -100.796875 C 206.625 -105.546875 203.898438 -109.539062 198.453125 -112.78125 C 193.015625 -115.90625 187.164062 -117.46875 180.90625 -117.46875 C 165.613281 -117.46875 149.914062 -110.519531 133.8125 -96.625 C 124.769531 -88.75 109.882812 -72.125 89.15625 -46.75 C 91.238281 -44.664062 102.53125 -37.304688 123.03125 -24.671875 C 134.382812 -30.585938 144.640625 -36.441406 153.796875 -42.234375 C 162.953125 -48.023438 171.175781 -53.929688 178.46875 -59.953125 C 197.238281 -75.242188 206.625 -88.859375 206.625 -100.796875 Z M 83.234375 -37.703125 L 59.078125 -5.90625 C 72.171875 -6.488281 89.03125 -11.125 109.65625 -19.8125 Z M 78.890625 -40.484375 C 74.378906 -44.304688 68.820312 -47.898438 62.21875 -51.265625 C 53.0625 -56.015625 44.660156 -58.390625 37.015625 -58.390625 C 28.441406 -58.390625 21.082031 -56.1875 14.9375 -51.78125 C 8.914062 -47.5 5.90625 -42.226562 5.90625 -35.96875 C 5.90625 -27.394531 11.695312 -19.984375 23.28125 -13.734375 C 28.5 -10.953125 33.625 -8.953125 38.65625 -7.734375 C 43.695312 -6.515625 48.769531 -5.90625 53.875 -5.90625 Z M 78.890625 -40.484375 "/></g></g></g><g fill="#c33c09" fill-opacity="1"><g transform="translate(509.994116, 260.263546)"><g><path d="M 79.078125 -28.671875 C 79.078125 -27.742188 78.84375 -27.109375 78.375 -26.765625 C 72.46875 -21.660156 67.425781 -17.457031 63.25 -14.15625 C 59.082031 -10.851562 55.78125 -8.394531 53.34375 -6.78125 C 47.4375 -2.84375 42.109375 0.140625 37.359375 2.171875 C 32.609375 4.203125 28.320312 5.21875 24.5 5.21875 C 18.25 5.21875 14.945312 0.523438 14.59375 -8.859375 C 11.8125 -6.546875 7.816406 -4.054688 2.609375 -1.390625 C -2.367188 1.273438 -6.539062 2.609375 -9.90625 2.609375 C -12.21875 2.609375 -14.359375 2.03125 -16.328125 0.875 C -18.304688 -0.0507812 -19.296875 -1.441406 -19.296875 -3.296875 C -19.296875 -8.515625 -14.601562 -14.769531 -5.21875 -22.0625 C -0.351562 -25.65625 4.132812 -28.378906 8.25 -30.234375 C 12.363281 -32.085938 16.21875 -33.015625 19.8125 -33.015625 C 24.09375 -33.015625 26.296875 -31.972656 26.421875 -29.890625 C 26.421875 -27.578125 25.722656 -25.894531 24.328125 -24.84375 C 22.941406 -23.800781 21.4375 -23.28125 19.8125 -23.28125 C 19.8125 -23.394531 19.753906 -23.628906 19.640625 -23.984375 C 19.523438 -24.210938 19.40625 -24.472656 19.28125 -24.765625 C 19.164062 -25.054688 18.992188 -25.429688 18.765625 -25.890625 C 18.066406 -27.515625 16.675781 -28.441406 14.59375 -28.671875 C 9.957031 -28.671875 4.742188 -26.125 -1.046875 -21.03125 C -6.953125 -16.164062 -9.90625 -11.757812 -9.90625 -7.8125 C -9.90625 -5.382812 -9.035156 -4.113281 -7.296875 -4 C -1.160156 -4 5.382812 -6.375 12.34375 -11.125 C 13.84375 -12.164062 16.445312 -14.710938 20.15625 -18.765625 C 22.476562 -21.660156 24.445312 -22.992188 26.0625 -22.765625 C 27.570312 -22.765625 28.328125 -22.1875 28.328125 -21.03125 C 28.328125 -19.988281 27.34375 -17.726562 25.375 -14.25 C 23.519531 -11.007812 22.59375 -8.632812 22.59375 -7.125 C 22.59375 -2.832031 24.734375 -0.628906 29.015625 -0.515625 C 34.234375 -0.515625 42.578125 -4.457031 54.046875 -12.34375 C 55.554688 -13.269531 58.222656 -15.117188 62.046875 -17.890625 C 65.867188 -20.671875 70.960938 -24.4375 77.328125 -29.1875 C 77.566406 -29.425781 77.914062 -29.546875 78.375 -29.546875 C 78.84375 -29.546875 79.078125 -29.253906 79.078125 -28.671875 Z M 79.078125 -28.671875 "/></g></g></g><g fill="#c33c09" fill-opacity="1"><g transform="translate(580.725142, 260.263546)"><g><path d="M 45.875 -24.671875 C 45.875 -23.628906 42.109375 -19.226562 34.578125 -11.46875 C 27.628906 -4.519531 21.863281 1.269531 17.28125 5.90625 C 12.707031 10.539062 9.207031 14.132812 6.78125 16.6875 C -0.0507812 23.75 -6.476562 30.8125 -12.5 37.875 C -18.53125 44.945312 -24.328125 52.015625 -29.890625 59.078125 C -32.203125 62.210938 -33.910156 64.878906 -35.015625 67.078125 C -36.117188 69.273438 -36.785156 70.957031 -37.015625 72.125 C -37.015625 72.46875 -36.957031 72.84375 -36.84375 73.25 C -36.726562 73.65625 -36.613281 74.207031 -36.5 74.90625 C -36.375 75.59375 -36.3125 76.195312 -36.3125 76.71875 C -36.3125 77.238281 -36.3125 77.617188 -36.3125 77.859375 C -37.707031 81.566406 -40.429688 83.535156 -44.484375 83.765625 C -44.710938 82.367188 -44.882812 81.175781 -45 80.1875 C -45.125 79.207031 -45.242188 78.253906 -45.359375 77.328125 C -45.359375 71.765625 -42.113281 65.507812 -35.625 58.5625 L 22.25 -5.390625 C 12.394531 0.984375 4.75 4.171875 -0.6875 4.171875 C -6.132812 4.171875 -8.859375 1.332031 -8.859375 -4.34375 C -8.859375 -8.863281 -7.003906 -14.191406 -3.296875 -20.328125 C 0.410156 -25.429688 3.476562 -28.5625 5.90625 -29.71875 C 7.757812 -29.832031 8.800781 -29.253906 9.03125 -27.984375 C 8.800781 -27.742188 8.25 -27.160156 7.375 -26.234375 C 6.507812 -25.304688 5.035156 -23.628906 2.953125 -21.203125 C -0.867188 -16.566406 -2.953125 -11.988281 -3.296875 -7.46875 C -3.296875 -3.875 -0.226562 -1.960938 5.90625 -1.734375 C 10.539062 -1.734375 17.722656 -5.734375 27.453125 -13.734375 C 37.066406 -21.609375 42.570312 -25.601562 43.96875 -25.71875 C 45.125 -25.71875 45.757812 -25.367188 45.875 -24.671875 Z M 45.875 -24.671875 "/></g></g></g><g fill="#c33c09" fill-opacity="1"><g transform="translate(643.635774, 260.263546)"><g><path d="M 79.078125 -28.671875 C 79.078125 -27.742188 78.84375 -27.109375 78.375 -26.765625 C 72.46875 -21.660156 67.425781 -17.457031 63.25 -14.15625 C 59.082031 -10.851562 55.78125 -8.394531 53.34375 -6.78125 C 47.4375 -2.84375 42.109375 0.140625 37.359375 2.171875 C 32.609375 4.203125 28.320312 5.21875 24.5 5.21875 C 18.25 5.21875 14.945312 0.523438 14.59375 -8.859375 C 11.8125 -6.546875 7.816406 -4.054688 2.609375 -1.390625 C -2.367188 1.273438 -6.539062 2.609375 -9.90625 2.609375 C -12.21875 2.609375 -14.359375 2.03125 -16.328125 0.875 C -18.304688 -0.0507812 -19.296875 -1.441406 -19.296875 -3.296875 C -19.296875 -8.515625 -14.601562 -14.769531 -5.21875 -22.0625 C -0.351562 -25.65625 4.132812 -28.378906 8.25 -30.234375 C 12.363281 -32.085938 16.21875 -33.015625 19.8125 -33.015625 C 24.09375 -33.015625 26.296875 -31.972656 26.421875 -29.890625 C 26.421875 -27.578125 25.722656 -25.894531 24.328125 -24.84375 C 22.941406 -23.800781 21.4375 -23.28125 19.8125 -23.28125 C 19.8125 -23.394531 19.753906 -23.628906 19.640625 -23.984375 C 19.523438 -24.210938 19.40625 -24.472656 19.28125 -24.765625 C 19.164062 -25.054688 18.992188 -25.429688 18.765625 -25.890625 C 18.066406 -27.515625 16.675781 -28.441406 14.59375 -28.671875 C 9.957031 -28.671875 4.742188 -26.125 -1.046875 -21.03125 C -6.953125 -16.164062 -9.90625 -11.757812 -9.90625 -7.8125 C -9.90625 -5.382812 -9.035156 -4.113281 -7.296875 -4 C -1.160156 -4 5.382812 -6.375 12.34375 -11.125 C 13.84375 -12.164062 16.445312 -14.710938 20.15625 -18.765625 C 22.476562 -21.660156 24.445312 -22.992188 26.0625 -22.765625 C 27.570312 -22.765625 28.328125 -22.1875 28.328125 -21.03125 C 28.328125 -19.988281 27.34375 -17.726562 25.375 -14.25 C 23.519531 -11.007812 22.59375 -8.632812 22.59375 -7.125 C 22.59375 -2.832031 24.734375 -0.628906 29.015625 -0.515625 C 34.234375 -0.515625 42.578125 -4.457031 54.046875 -12.34375 C 55.554688 -13.269531 58.222656 -15.117188 62.046875 -17.890625 C 65.867188 -20.671875 70.960938 -24.4375 77.328125 -29.1875 C 77.566406 -29.425781 77.914062 -29.546875 78.375 -29.546875 C 78.84375 -29.546875 79.078125 -29.253906 79.078125 -28.671875 Z M 79.078125 -28.671875 "/></g></g></g><g fill="#c33c09" fill-opacity="1"><g transform="translate(302.926268, 409.440735)"><g><path d="M 164.578125 -115.046875 C 164.578125 -106.359375 160.40625 -98.535156 152.0625 -91.578125 C 143.601562 -84.742188 134.566406 -81.328125 124.953125 -81.328125 C 121.472656 -81.328125 118.398438 -81.960938 115.734375 -83.234375 C 113.535156 -84.628906 112.320312 -86.367188 112.09375 -88.453125 C 112.09375 -93.671875 113.769531 -96.28125 117.125 -96.28125 C 119.09375 -96.28125 120.132812 -95.523438 120.25 -94.015625 C 120.25 -93.429688 119.960938 -92.851562 119.390625 -92.28125 C 119.160156 -92.050781 119.015625 -91.789062 118.953125 -91.5 C 118.890625 -91.207031 118.800781 -90.828125 118.6875 -90.359375 C 118.6875 -88.859375 119.554688 -87.53125 121.296875 -86.375 C 123.148438 -85.207031 125.46875 -84.625 128.25 -84.625 C 134.738281 -84.625 140.992188 -87.460938 147.015625 -93.140625 C 153.160156 -99.054688 156.234375 -105.023438 156.234375 -111.046875 C 156.234375 -116.492188 153.453125 -121.128906 147.890625 -124.953125 C 142.785156 -128.660156 136.066406 -130.515625 127.734375 -130.515625 C 114.523438 -130.515625 100.039062 -126.398438 84.28125 -118.171875 C 67.363281 -109.484375 58.90625 -100.210938 58.90625 -90.359375 C 58.90625 -83.296875 63.367188 -77.96875 72.296875 -74.375 L 119.21875 -56.65625 C 130.800781 -52.363281 136.59375 -45.929688 136.59375 -37.359375 C 136.59375 -24.148438 129.875 -13.4375 116.4375 -5.21875 C 109.601562 -1.28125 101.78125 1.703125 92.96875 3.734375 C 84.164062 5.765625 74.144531 6.835938 62.90625 6.953125 C 44.601562 6.953125 28.847656 3.820312 15.640625 -2.4375 C 2.773438 -8.925781 -3.65625 -16.6875 -3.65625 -25.71875 C -3.65625 -33.019531 1.210938 -38.234375 10.953125 -41.359375 C 15.234375 -42.515625 17.550781 -42.457031 17.90625 -41.1875 C 17.550781 -40.957031 17.085938 -40.609375 16.515625 -40.140625 C 15.929688 -39.796875 15.257812 -39.332031 14.5 -38.75 C 13.75 -38.175781 12.910156 -37.539062 11.984375 -36.84375 C 8.160156 -34.40625 6.191406 -31.101562 6.078125 -26.9375 C 6.078125 -17.550781 11.582031 -10.132812 22.59375 -4.6875 C 33.132812 0.519531 47.90625 3.238281 66.90625 3.46875 C 75.9375 3.46875 84.1875 2.65625 91.65625 1.03125 C 99.132812 -0.582031 105.945312 -3.128906 112.09375 -6.609375 C 124.132812 -13.210938 130.15625 -21.492188 130.15625 -31.453125 C 130.15625 -39.210938 124.828125 -45.179688 114.171875 -49.359375 L 67.78125 -67.953125 C 58.625 -71.421875 53.988281 -77.617188 53.875 -86.546875 C 53.875 -98.710938 62.039062 -109.832031 78.375 -119.90625 C 94.820312 -130.101562 112.722656 -135.203125 132.078125 -135.203125 C 142.390625 -135.203125 150.382812 -133.347656 156.0625 -129.640625 C 161.5 -126.046875 164.335938 -121.179688 164.578125 -115.046875 Z M 164.578125 -115.046875 "/></g></g></g><g fill="#c33c09" fill-opacity="1"><g transform="translate(458.638812, 409.440735)"><g><path d="M 40.140625 -63.4375 C 40.140625 -63.3125 27.914062 -49.289062 3.46875 -21.375 C 5.675781 -22.53125 7.878906 -23.6875 10.078125 -24.84375 C 12.273438 -26.007812 14.535156 -27.226562 16.859375 -28.5 C 22.421875 -30.9375 27.457031 -32.210938 31.96875 -32.328125 C 36.84375 -32.328125 39.453125 -30.179688 39.796875 -25.890625 C 39.796875 -23.109375 37.476562 -19.226562 32.84375 -14.25 C 30.644531 -11.9375 28.210938 -9.820312 25.546875 -7.90625 C 22.878906 -6 19.867188 -4.054688 16.515625 -2.078125 C 9.796875 1.390625 4.40625 3.179688 0.34375 3.296875 C -0.582031 3.296875 -1.332031 3.125 -1.90625 2.78125 C -2.488281 2.4375 -3.070312 1.972656 -3.65625 1.390625 C -4.695312 0.347656 -5.21875 -0.984375 -5.21875 -2.609375 C -5.21875 -5.847656 -4.113281 -7.582031 -1.90625 -7.8125 C -0.75 -7.8125 0 -7.46875 0.34375 -6.78125 C 0.695312 -6.3125 1.160156 -5.5 1.734375 -4.34375 C 2.546875 -2.601562 4.34375 -1.734375 7.125 -1.734375 C 10.71875 -1.734375 15.816406 -4.515625 22.421875 -10.078125 C 29.140625 -15.296875 32.5 -19.929688 32.5 -23.984375 C 32.5 -25.835938 30.410156 -26.9375 26.234375 -27.28125 C 22.296875 -27.28125 18.300781 -26.003906 14.25 -23.453125 C 12.625 -22.410156 10.21875 -20.613281 7.03125 -18.0625 C 3.851562 -15.519531 -0.109375 -12.222656 -4.859375 -8.171875 C -10.890625 -3.066406 -17.085938 2.984375 -23.453125 9.984375 C -29.828125 16.992188 -36.488281 25.132812 -43.4375 34.40625 C -55.257812 50.851562 -61.691406 61.394531 -62.734375 66.03125 L -62.734375 72.296875 C -62.734375 73.910156 -63.3125 75.066406 -64.46875 75.765625 C -65.394531 76.460938 -66.5 76.925781 -67.78125 77.15625 C -68.46875 77.15625 -69.128906 77.097656 -69.765625 76.984375 C -70.410156 76.867188 -71.019531 76.578125 -71.59375 76.109375 C -72.75 75.535156 -73.503906 74.550781 -73.859375 73.15625 C -73.859375 71.070312 -73.101562 69.21875 -71.59375 67.59375 C -70.320312 65.28125 -69.304688 63.570312 -68.546875 62.46875 C -67.796875 61.375 -67.363281 60.707031 -67.25 60.46875 C -63.539062 53.632812 -58.148438 45.523438 -51.078125 36.140625 C -44.015625 26.753906 -35.210938 15.925781 -24.671875 3.65625 C -19.691406 -2.257812 -12.304688 -10.71875 -2.515625 -21.71875 C 7.273438 -32.726562 19.757812 -46.457031 34.9375 -62.90625 C 36.4375 -64.414062 37.707031 -65.226562 38.75 -65.34375 C 39.332031 -65.34375 39.796875 -64.707031 40.140625 -63.4375 Z M 40.140625 -63.4375 "/></g></g></g><g fill="#c33c09" fill-opacity="1"><g transform="translate(523.287308, 409.440735)"><g><path d="M 21.890625 -41.53125 C 21.890625 -38.289062 19.570312 -36.671875 14.9375 -36.671875 C 10.425781 -36.671875 8.171875 -38.289062 8.171875 -41.53125 C 8.171875 -44.894531 10.425781 -46.578125 14.9375 -46.578125 C 19.570312 -46.578125 21.890625 -44.894531 21.890625 -41.53125 Z M 50.21875 -28.5 C 50.21875 -27.800781 49.929688 -27.222656 49.359375 -26.765625 C 43.097656 -21.316406 38.054688 -17.023438 34.234375 -13.890625 C 30.410156 -10.765625 27.628906 -8.625 25.890625 -7.46875 C 15.691406 0.0625 7.929688 3.828125 2.609375 3.828125 C -0.640625 3.828125 -3.710938 2.84375 -6.609375 0.875 C -9.265625 -0.976562 -10.710938 -3.296875 -10.953125 -6.078125 C -10.953125 -10.367188 -8.691406 -15.410156 -4.171875 -21.203125 C -0.117188 -26.523438 3.472656 -29.535156 6.609375 -30.234375 C 8.109375 -30.234375 8.859375 -29.710938 8.859375 -28.671875 C 8.859375 -27.742188 7.003906 -25.195312 3.296875 -21.03125 C 0.0546875 -16.851562 -1.675781 -12.910156 -1.90625 -9.203125 C -1.90625 -4.578125 0.234375 -2.203125 4.515625 -2.078125 C 9.378906 -2.078125 23.976562 -11.113281 48.3125 -29.1875 C 48.539062 -29.425781 48.890625 -29.546875 49.359375 -29.546875 C 49.703125 -29.546875 49.988281 -29.195312 50.21875 -28.5 Z M 50.21875 -28.5 "/></g></g></g><g fill="#c33c09" fill-opacity="1"><g transform="translate(565.169797, 409.440735)"><g><path d="M 72.125 -27.984375 C 72.125 -27.398438 68.703125 -24.269531 61.859375 -18.59375 C 58.734375 -15.925781 56.007812 -13.753906 53.6875 -12.078125 C 51.375 -10.398438 49.46875 -8.976562 47.96875 -7.8125 C 40.664062 -2.71875 33.507812 1.039062 26.5 3.46875 C 19.488281 5.90625 12.679688 7.179688 6.078125 7.296875 C 1.210938 7.296875 -2.722656 5.847656 -5.734375 2.953125 C -8.628906 0.523438 -10.078125 -2.773438 -10.078125 -6.953125 C -10.078125 -12.972656 -6.195312 -19.460938 1.5625 -26.421875 C 5.613281 -30.242188 9.867188 -33.109375 14.328125 -35.015625 C 18.796875 -36.929688 23.40625 -38.003906 28.15625 -38.234375 C 31.75 -38.234375 33.71875 -36.492188 34.0625 -33.015625 C 34.0625 -29.660156 31.453125 -26.359375 26.234375 -23.109375 C 24.035156 -21.609375 21.953125 -20.535156 19.984375 -19.890625 C 18.015625 -19.253906 16.21875 -18.878906 14.59375 -18.765625 C 11.925781 -18.765625 10.59375 -19.40625 10.59375 -20.6875 C 10.59375 -24.039062 12.332031 -25.71875 15.8125 -25.71875 C 16.039062 -25.71875 16.300781 -25.6875 16.59375 -25.625 C 16.882812 -25.570312 17.320312 -25.429688 17.90625 -25.203125 C 18.59375 -24.847656 19.691406 -24.554688 21.203125 -24.328125 C 22.828125 -24.328125 24.332031 -25.253906 25.71875 -27.109375 C 27.34375 -28.960938 28.15625 -30.523438 28.15625 -31.796875 C 28.15625 -32.722656 26.648438 -33.304688 23.640625 -33.546875 C 18.421875 -33.546875 12.6875 -30.765625 6.4375 -25.203125 C 0.757812 -19.867188 -2.253906 -14.882812 -2.609375 -10.25 C -2.609375 -7.238281 -1.101562 -4.515625 1.90625 -2.078125 C 4.226562 0.234375 7.820312 1.390625 12.6875 1.390625 C 19.632812 1.390625 28.035156 -1.332031 37.890625 -6.78125 C 41.128906 -8.394531 44.601562 -10.421875 48.3125 -12.859375 C 52.019531 -15.296875 55.898438 -18.191406 59.953125 -21.546875 C 66.785156 -26.878906 70.4375 -29.546875 70.90625 -29.546875 C 71.71875 -29.546875 72.125 -29.023438 72.125 -27.984375 Z M 72.125 -27.984375 "/></g></g></g><g fill="#c33c09" fill-opacity="1"><g transform="translate(628.949367, 409.440735)"><g><path d="M 47.09375 -28.5 C 47.09375 -27.800781 46.863281 -27.164062 46.40625 -26.59375 C 40.375 -21.488281 35.269531 -17.3125 31.09375 -14.0625 C 26.925781 -10.820312 23.628906 -8.394531 21.203125 -6.78125 C 9.617188 0.976562 -0.863281 4.976562 -10.25 5.21875 C -18.25 5.21875 -22.304688 1.101562 -22.421875 -7.125 C -22.421875 -12.21875 -19.46875 -18.1875 -13.5625 -25.03125 C -7.1875 -31.632812 -1.851562 -34.9375 2.4375 -34.9375 C 3.9375 -34.9375 5.269531 -34.351562 6.4375 -33.1875 C 7.707031 -32.144531 8.34375 -30.988281 8.34375 -29.71875 C 8.34375 -28.675781 8.140625 -27.691406 7.734375 -26.765625 C 7.328125 -25.835938 6.488281 -24.734375 5.21875 -23.453125 C 4.050781 -22.296875 2.972656 -21.34375 1.984375 -20.59375 C 1.003906 -19.84375 -0.117188 -19.003906 -1.390625 -18.078125 C -3.242188 -16.679688 -5.238281 -15.257812 -7.375 -13.8125 C -9.519531 -12.363281 -11.984375 -10.945312 -14.765625 -9.5625 C -14.878906 -6.78125 -13.722656 -4.460938 -11.296875 -2.609375 C -9.328125 -1.328125 -7.179688 -0.6875 -4.859375 -0.6875 C 1.160156 -0.6875 10.132812 -4.570312 22.0625 -12.34375 C 23.226562 -13.15625 25.722656 -14.945312 29.546875 -17.71875 C 33.367188 -20.5 38.582031 -24.382812 45.1875 -29.375 C 45.53125 -29.488281 45.9375 -29.546875 46.40625 -29.546875 C 46.75 -29.546875 46.976562 -29.195312 47.09375 -28.5 Z M 0.6875 -27.8125 C 0.6875 -28.726562 -0.0625 -29.1875 -1.5625 -29.1875 C -2.375 -29.1875 -3.472656 -28.753906 -4.859375 -27.890625 C -6.253906 -27.023438 -7.765625 -25.664062 -9.390625 -23.8125 C -10.546875 -22.53125 -11.585938 -21.078125 -12.515625 -19.453125 C -13.441406 -17.835938 -14.019531 -16.394531 -14.25 -15.125 C -14.019531 -15.125 -13.554688 -15.238281 -12.859375 -15.46875 C -12.160156 -15.695312 -11.523438 -15.984375 -10.953125 -16.328125 C -7.941406 -17.953125 -5.25 -19.863281 -2.875 -22.0625 C -0.5 -24.269531 0.6875 -26.1875 0.6875 -27.8125 Z M 0.6875 -27.8125 "/></g></g></g><g fill="#c33c09" fill-opacity="1"><g transform="translate(667.877495, 409.440735)"><g><path d="M 60.65625 -28.5 C 60.65625 -27.800781 60.421875 -27.164062 59.953125 -26.59375 C 46.515625 -15.582031 38.289062 -9.09375 35.28125 -7.125 C 23.34375 0.519531 10.363281 4.457031 -3.65625 4.6875 C -7.9375 4.6875 -11.351562 3.816406 -13.90625 2.078125 C -14.832031 1.617188 -16.914062 -0.226562 -20.15625 -3.46875 C -20.15625 -4.28125 -20.039062 -4.921875 -19.8125 -5.390625 C -21.78125 -4.234375 -23.660156 -3.191406 -25.453125 -2.265625 C -27.253906 -1.335938 -29.023438 -0.523438 -30.765625 0.171875 C -32.734375 0.171875 -33.773438 -0.113281 -33.890625 -0.6875 C -33.890625 -1.039062 -33.742188 -1.445312 -33.453125 -1.90625 C -33.160156 -2.375 -32.726562 -3.015625 -32.15625 -3.828125 C -26.707031 -6.484375 -21.113281 -9.691406 -15.375 -13.453125 C -9.644531 -17.222656 -3.707031 -21.546875 2.4375 -26.421875 C 2.4375 -26.535156 2.492188 -26.707031 2.609375 -26.9375 C 5.847656 -29.488281 9.320312 -30.878906 13.03125 -31.109375 C 18.820312 -31.109375 21.71875 -28.5 21.71875 -23.28125 C 21.71875 -19.8125 19.921875 -15.703125 16.328125 -10.953125 C 13.203125 -6.660156 10.078125 -3.585938 6.953125 -1.734375 C 14.128906 -1.734375 23.570312 -5.441406 35.28125 -12.859375 C 37.945312 -14.367188 41.191406 -16.484375 45.015625 -19.203125 C 48.835938 -21.921875 53.410156 -25.3125 58.734375 -29.375 C 59.085938 -29.488281 59.492188 -29.546875 59.953125 -29.546875 C 60.296875 -29.546875 60.53125 -29.195312 60.65625 -28.5 Z M 13.375 -21.03125 C 13.375 -23.925781 11.867188 -25.375 8.859375 -25.375 C 8.160156 -25.375 7.519531 -25.375 6.9375 -25.375 C 6.363281 -25.375 5.90625 -25.257812 5.5625 -25.03125 C 1.15625 -21.320312 -2.925781 -17.988281 -6.6875 -15.03125 C -10.457031 -12.070312 -13.960938 -9.4375 -17.203125 -7.125 C -16.617188 -7.125 -16.097656 -7.007812 -15.640625 -6.78125 C -11.703125 -4.34375 -8.34375 -3.007812 -5.5625 -2.78125 C -3.125 -2.78125 -0.75 -3.328125 1.5625 -4.421875 C 3.882812 -5.523438 6.03125 -7.296875 8 -9.734375 C 9.726562 -11.703125 11 -13.582031 11.8125 -15.375 C 12.625 -17.175781 13.144531 -19.0625 13.375 -21.03125 Z M 13.375 -21.03125 "/></g></g></g></svg>